SplineFontDB: 3.0
FontName: Jones*-Medium
FullName: Jones* Medium
FamilyName: Jones*
Weight: Medium
Copyright: This is a modified version of "Montserrat", a font by Julieta Ulanovsky. Copyright 2015 Indestructible Type
UComments: "Thank you for using Jones* by indestructible type. This is an Open Source font. Your participation in the pirfection of this font is encouraged. If you enconter ways inwhich this typeface can be inproved please see our site where this font was downloaded from to help implement those improvements."

StartChar: .notdef
Encoding: 65536 -1 0
Width: 500
Flags: HW
LayerCount: 2
Fore
SplineSet
0 0 m 1
 0 700 l 1
 500 700 l 1
 500 0 l 1
 0 0 l 1
250 395 m 1
 420 650 l 1
 80 650 l 1
 250 395 l 1
280 350 m 1
 450 95 l 1
 450 605 l 1
 280 350 l 1
80 50 m 1
 420 50 l 1
 250 305 l 1
 80 50 l 1
50 605 m 1
 50 95 l 1
 220 350 l 1
 50 605 l 1
EndSplineSet
EndChar

StartChar: A
Encoding: 65 65 1
Width: 796
GlyphClass: 2
Flags: HW
HStem: 0 21G<24 153.774 529.798 662.6> 157 106<188.6 490.2> 680 20G<288.034 400.314>
LayerCount: 2
Fore
SplineSet
205 157 m 1xc8
 205 263 l 1
 582 263 l 1
 582 157 l 1
 205 157 l 1xc8
396 574 m 1xe8
 153 0 l 1
 30 0 l 1
 339 700 l 1
 460 700 l 1xd8
 766 0 l 1
 640 0 l 1
 396 574 l 1xe8
EndSplineSet
Substitution2: "Single Substitution lookup 14 subtable" ordfeminine
Substitution2: "'aalt' Access All Alternates lookup 0 subtable" ordfeminine
EndChar

StartChar: Aring
Encoding: 197 197 9
Width: 738
GlyphClass: 2
Flags: HW
LayerCount: 2
Fore
SplineSet
544 158 m 1
 191 158 l 1
 124 0 l 1
 1 0 l 1
 300 676 l 1
 269 698 249 734 249 774 c 0
 249 841 304 896 371 896 c 0
 439 896 494 841 494 774 c 0
 494 734 473 697 442 675 c 1
 737 0 l 1
 611 0 l 1
 544 158 l 1
371 840 m 0
 333 840 302 810 302 774 c 0
 302 738 333 709 371 709 c 0
 409 709 441 738 441 774 c 0
 441 810 409 840 371 840 c 0
499 263 m 1
 367 574 l 1
 235 263 l 1
 499 263 l 1
EndSplineSet
EndChar

StartChar: AE
Encoding: 198 198 11
Width: 1052
GlyphClass: 2
Flags: HW
AnchorPoint: "Anchor-0" 727 0 basechar 0
LayerCount: 2
Fore
SplineSet
999 106 m 1xf4
 999 0 l 1
 488 0 l 1
 488 173 l 1
 222 173 l 1
 124 0 l 1
 1 0 l 1
 407 700 l 1
 987 700 l 1
 987 594 l 1
 605 594 l 1
 605 404 l 1
 948 404 l 1
 948 299 l 1
 605 299 l 1
 605 106 l 1
 999 106 l 1xf4
488 265 m 1
 488 602 l 1
 464 602 l 1xec
 274 265 l 1
 488 265 l 1
EndSplineSet
EndChar

StartChar: B
Encoding: 66 66 12
Width: 698
GlyphClass: 2
Flags: HW
LayerCount: 2
Fore
SplineSet
73 700 m 1xf4
 377 700 l 2
 522 700 612 634 612 525 c 0xf8
 612 446 565 387 489 369 c 1
 583 353 639 286 639 192 c 0
 639 72 542 0 384 0 c 2
 73 0 l 1
 73 700 l 1xf4
191 595 m 1
 191 410 l 1
 371 410 l 2
 446 410 491 445 491 504 c 0
 491 563 446 595 371 595 c 2
 191 595 l 1
191 306 m 1
 191 105 l 1
 371 105 l 2
 463 105 518 141 518 207 c 0xf4
 518 269 463 306 371 306 c 2
 191 306 l 1
EndSplineSet
EndChar

StartChar: C
Encoding: 67 67 13
Width: 735
GlyphClass: 2
Flags: HW
HStem: -5 110<278.41 442.647> 598 105<279.638 439.261>
VStem: 40 120<241.181 465.304>
AnchorPoint: "Anchor-0" 399 0 basechar 0
LayerCount: 2
Fore
SplineSet
418 703 m 0
 517 703 616 662 684 595 c 1
 615 509 l 1
 564 564 491 598 420 598 c 0
 280 598 170 490 170 352 c 0
 170 214 280 105 420 105 c 0
 490 105 562 137 615 188 c 1
 685 110 l 1
 614 40 513 -5 414 -5 c 0
 209 -5 50 150 50 351 c 0
 50 550 211 703 418 703 c 0
EndSplineSet
EndChar

StartChar: D
Encoding: 68 68 17
Width: 774
GlyphClass: 2
Flags: HW
HStem: 0 106<178 395.553> 594 106<178 389.826>
VStem: 60 118<106 594> 507.6 119<234.66 464.966>
LayerCount: 2
Fore
SplineSet
75 700 m 1
 362 700 l 2
 572 700 724 553 724 350 c 0
 724 148 571 0 359 0 c 2
 75 0 l 1
 75 700 l 1
193 594 m 1
 193 106 l 1
 365 106 l 2
 501 106 605 207 605 349 c 0
 605 492 498 594 360 594 c 2
 193 594 l 1
EndSplineSet
EndChar

StartChar: Eth
Encoding: 208 208 18
Width: 795
GlyphClass: 2
Flags: HW
LayerCount: 2
Fore
SplineSet
112 700 m 1
 399 700 l 2
 608 700 761 553 761 350 c 0
 761 148 608 0 395 0 c 2
 112 0 l 1
 112 317 l 1
 0 317 l 1
 0 386 l 1
 112 386 l 1
 112 700 l 1
229 106 m 1
 402 106 l 2
 538 106 641 207 641 349 c 0
 641 492 535 594 397 594 c 2
 229 594 l 1
 229 386 l 1
 428 386 l 1
 428 317 l 1
 229 317 l 1
 229 106 l 1
EndSplineSet
EndChar

StartChar: Dcroat
Encoding: 272 272 20
Width: 775
GlyphClass: 2
Flags: HW
LayerCount: 2
Fore
SplineSet
493 809 m 1
 238 809 l 1
 238 892 l 1
 493 892 l 1
 493 809 l 1
92 700 m 1xf4
 379 700 l 2
 589 700 741 553 741 350 c 0
 741 148 588 0 376 0 c 2
 92 0 l 1
 92 700 l 1xf4
210 594 m 1
 210 106 l 1
 382 106 l 2
 518 106 622 207 622 349 c 0
 622 492 515 594 377 594 c 2
 210 594 l 1
EndSplineSet
EndChar

StartChar: E
Encoding: 69 69 21
Width: 647
GlyphClass: 2
Flags: HW
HStem: 0 106<178 517.2> 299 106<178 465.2> 594 106<178 505.2>
VStem: 60 118<106 299 405 594>
AnchorPoint: "Anchor-0" 314 0 basechar 0
LayerCount: 2
Fore
SplineSet
575 594 m 1
 193 594 l 1
 193 405 l 1
 535 405 l 1
 535 299 l 1
 193 299 l 1
 193 106 l 1
 587 106 l 1
 587 0 l 1
 75 0 l 1
 75 700 l 1
 575 700 l 1
 575 594 l 1
EndSplineSet
EndChar

StartChar: F
Encoding: 70 70 30
Width: 597
GlyphClass: 2
Flags: HW
LayerCount: 2
Fore
SplineSet
542 594 m 1
 191 594 l 1
 191 392 l 1
 509 392 l 1
 509 287 l 1
 191 287 l 1
 191 0 l 1
 73 0 l 1
 73 700 l 1
 543 700 l 1
 542 594 l 1
EndSplineSet
EndChar

StartChar: G
Encoding: 71 71 31
Width: 754
GlyphClass: 2
Flags: HW
HStem: -5 106<281.104 449.977> 285 99<360.8 488> 285 59<488 598> 598 105<278.953 452.033>
VStem: 40 120<241.969 460.321> 488 110<102 344> 495 103<149 344>
AnchorPoint: "Anchor-0" 403 0 basechar 0
LayerCount: 2
Fore
SplineSet
690 384 m 5
 690 285 l 5
 421 285 l 5
 421 384 l 5
 690 384 l 5
690 344 m 5
 690 102 l 5
 580 102 l 5
 580 344 l 5
 690 344 l 5
587 344 m 5xb8
 690 344 l 5
 690 86 l 5
 619 32 514 -5 418 -5 c 4
 211 -5 50 150 50 350 c 4
 50 550 213 703 425 703 c 4xb8
 525 703 625 665 694 605 c 5xd8
 627 518 l 5
 573 568 498 598 425 598 c 4
 282 598 170 489 170 350 c 4
 170 210 283 101 426 101 c 4
 478 101 537 119 587 149 c 5
 587 344 l 5xb8
EndSplineSet
EndChar

StartChar: H
Encoding: 72 72 34
Width: 757
GlyphClass: 2
Flags: HW
LayerCount: 2
Fore
SplineSet
682 0 m 1
 564 0 l 1
 564 290 l 1
 193 290 l 1
 193 0 l 1
 75 0 l 1
 75 700 l 1
 193 700 l 5
 193 396 l 1
 564 396 l 1
 564 700 l 1
 682 700 l 1
 682 0 l 1
EndSplineSet
EndChar

StartChar: I
Encoding: 73 73 35
Width: 268
GlyphClass: 2
Flags: HW
HStem: 0 21G<60 178> 680 20G<60 178>
VStem: 60 118<0 700>
LayerCount: 2
Fore
SplineSet
193 0 m 1
 75 0 l 1
 75 700 l 1
 193 700 l 1
 193 0 l 1
EndSplineSet
EndChar

StartChar: IJ
Encoding: 306 306 36
Width: 801
GlyphClass: 2
Flags: HW
LayerCount: 2
Fore
SplineSet
210 0 m 1x78
 92 0 l 1
 92 700 l 1
 210 700 l 1
 210 0 l 1x78
724 700 m 1
 724 216 l 2
 724 75 641 -5 506 -5 c 0
 422 -5 352 32 300 96 c 1
 356 186 l 1
 402 136 457 109 505 109 c 0xb8
 568 109 605 148 605 220 c 2
 605 700 l 2
 724 700 l 1
EndSplineSet
EndChar

StartChar: J
Encoding: 74 74 45
Width: 549
GlyphClass: 2
Flags: HW
HStem: -5 114<162.662 280.859> 680 20G<308 427>
VStem: 308 119<137.788 700>
LayerCount: 2
Fore
SplineSet
474 700 m 1
 474 216 l 2
 474 75 391 -5 256 -5 c 0
 172 -5 102 32 50 96 c 1
 106 186 l 1
 152 136 207 109 255 109 c 0
 318 109 355 148 355 220 c 0
 355 380 355 540 355 700 c 1
 474 700 l 1
EndSplineSet
EndChar

StartChar: K
Encoding: 75 75 47
Width: 735
GlyphClass: 2
Flags: HW
HStem: 0 21G<60 178 445.669 600.2> 680 20G<60 178 426.269 585.2>
VStem: 60 118<0 182.216 347.442 700>
AnchorPoint: "Anchor-0" 336 0 basechar 0
LayerCount: 2
Fore
SplineSet
522 700 m 1
 670 700 l 1
 395.208007812 401.711914062 l 1
 685 0 l 1
 542 0 l 1
 315.131835938 314.790039062 l 1
 193 182.215820312 l 1
 193 0 l 1
 75 0 l 1
 75 700 l 1
 193 700 l 1
 193 347.442382812 l 1
 522 700 l 1
EndSplineSet
EndChar

StartChar: L
Encoding: 76 76 49
Width: 556
GlyphClass: 2
Flags: HW
HStem: 0 107<178 444.4> 680 20G<60 178>
VStem: 60 118<107 700>
AnchorPoint: "Anchor-0" 273 0 basechar 0
LayerCount: 2
Fore
SplineSet
193 107 m 1
 496 107 l 1
 496 0 l 1
 75 0 l 1
 75 700 l 1
 193 700 l 1
 193 107 l 1
EndSplineSet
EndChar

StartChar: Lslash
Encoding: 321 321 54
Width: 551
GlyphClass: 2
Flags: HW
AnchorPoint: "Anchor-0" 306 0 basechar 0
LayerCount: 2
Fore
SplineSet
530 107 m 1
 530 0 l 1
 109 0 l 1
 109 368 l 1
 26 344 l 1
 6 420 l 1
 109 450 l 1
 109 700 l 1
 226 700 l 1
 226 485 l 1
 386 532 l 1
 406 455 l 1
 226 402 l 1
 226 107 l 1
 530 107 l 1
EndSplineSet
EndChar

StartChar: M
Encoding: 77 77 55
Width: 890
GlyphClass: 2
Flags: HW
LayerCount: 2
Fore
SplineSet
815 0 m 1xb8
 706 0 l 1
 705 523 l 1
 484 73 l 1
 407 73 l 1
 186 523 l 1xd8
 186 0 l 1
 75 0 l 1
 75 700 l 1
 215 700 l 1
 446 235 l 1
 676 700 l 1
 815 700 l 1
 815 0 l 1xb8
EndSplineSet
EndChar

StartChar: N
Encoding: 78 78 56
Width: 737
GlyphClass: 2
Flags: HW
HStem: 0 21G<60 178 449.149 576.4> 680 20G<60 187.308 460.4 576.4>
VStem: 60 118<0 502> 460.4 116<197 700>
AnchorPoint: "Anchor-0" 379 0 basechar 0
LayerCount: 2
Fore
SplineSet
662 0 m 1
 546 0 l 1
 193 502 l 1
 193 0 l 1
 75 0 l 1
 75 700 l 1
 191 700 l 1
 546 197 l 1
 546 700 l 1
 662 700 l 1
 662 0 l 1
EndSplineSet
EndChar

StartChar: O
Encoding: 79 79 61
Width: 842
GlyphClass: 2
Flags: HW
HStem: -5 106<281.669 440.529> 597 106<281.497 440.529>
VStem: 40 120<242.187 457.714> 560.8 121<239.481 460.215>
LayerCount: 2
Fore
SplineSet
421 703 m 0
 630 703 792 550 792 350 c 0
 792 150 630 -5 421 -5 c 0
 212 -5 50 150 50 350 c 0
 50 551 212 703 421 703 c 0
422 597 m 0
 284 597 170 489 170 350 c 0
 170 211 285 101 422 101 c 0
 559 101 671 211 671 350 c 0
 671 489 559 597 422 597 c 0
EndSplineSet
Substitution2: "Single Substitution lookup 14 subtable" ordmasculine
Substitution2: "'aalt' Access All Alternates lookup 0 subtable" ordmasculine
EndChar

StartChar: Oslash
Encoding: 216 216 68
Width: 810
GlyphClass: 2
Flags: HW
LayerCount: 2
Fore
SplineSet
582 811 m 1xd8
 538 681 l 1xb8
 679 632 776 505 776 350 c 0
 776 150 614 -5 405 -5 c 0
 372 -5 339 -1 309 6 c 1
 265 -122 l 1
 196 -122 l 1
 247 27 l 1
 120 83 34 205 34 350 c 0
 34 551 196 703 405 703 c 0
 428 703 451 701 474 697 c 1
 512 811 l 1
 582 811 l 1xd8
154 350 m 0
 154 256 206 176 282 133 c 1
 439 595 l 1
 428 596 417 597 406 597 c 0xd8
 268 597 154 489 154 350 c 0
406 101 m 0xd8
 543 101 655 211 655 350 c 0
 655 454 592 541 502 578 c 1
 343 109 l 1
 363 104 384 101 406 101 c 0xd8
EndSplineSet
EndChar

StartChar: OE
Encoding: 338 338 70
Width: 1097
GlyphClass: 2
Flags: HW
AnchorPoint: "Anchor-0" 772 0 basechar 0
LayerCount: 2
Fore
SplineSet
1045 106 m 1
 1045 0 l 1
 404 0 l 2
 196 0 34 152 34 350 c 0
 34 546 195 700 404 700 c 2
 1033 700 l 1
 1033 594 l 1
 651 594 l 1
 651 404 l 1
 993 404 l 1
 993 299 l 1
 651 299 l 1
 651 106 l 1
 1045 106 l 1
533 106 m 1
 533 593 l 1
 405 593 l 2
 264 593 154 488 154 349 c 0
 154 210 264 106 405 106 c 2
 533 106 l 1
EndSplineSet
EndChar

StartChar: P
Encoding: 80 80 71
Width: 661
GlyphClass: 2
Flags: HW
LayerCount: 2
Fore
SplineSet
75 700 m 1
 364 700 l 6
 520 700 611 608 611 476 c 4
 611 338 520 241 364 241 c 6
 193 241 l 1
 193 0 l 1
 75 0 l 1
 75 700 l 1
193 594 m 1
 193 347 l 1
 359 347 l 6
 447 347 498 398 498 473 c 4
 498 545 447 594 359 594 c 6
 193 594 l 1
EndSplineSet
EndChar

StartChar: Thorn
Encoding: 222 222 72
Width: 679
GlyphClass: 2
Flags: HW
LayerCount: 2
Fore
SplineSet
210 601 m 1xec
 357 601 l 2xec
 547 601 653 516 653 367 c 0
 653 211 547 122 357 122 c 2
 210 122 l 1
 210 0 l 1
 92 0 l 1
 92 700 l 1
 210 700 l 1xdc
 210 601 l 1xec
210 220 m 1
 352 220 l 2
 471 220 533 269 533 364 c 0
 533 455 471 503 352 503 c 2
 210 503 l 1
 210 220 l 1
EndSplineSet
EndChar

StartChar: Q
Encoding: 81 81 73
Width: 842
GlyphClass: 2
Flags: HW
LayerCount: 2
Fore
SplineSet
396.666015625 246.075195312 m 5
 473.981445312 329.849609375 l 5
 787.65625 34.123046875 l 5
 710.342773438 -49.6533203125 l 5
 396.666015625 246.075195312 l 5
421 703 m 4
 630 703 792 550 792 350 c 4
 792 150 630 -5 421 -5 c 4
 212 -5 50 150 50 350 c 4
 50 551 212 703 421 703 c 4
422 597 m 4
 284 597 170 489 170 350 c 4
 170 211 285 101 422 101 c 4
 559 101 671 211 671 350 c 4
 671 489 559 597 422 597 c 4
EndSplineSet
EndChar

StartChar: R
Encoding: 82 82 74
Width: 692
GlyphClass: 2
Flags: HW
HStem: 0 21G<60 178 418.496 562> 261 106<178 277.2 326.8 397.2> 261 23<277.2 385.2> 594 106<178 399.098>
VStem: 60 118<0 261 367 594> 438 113<407.639 555.41>
AnchorPoint: "Anchor-0" 343 0 basechar 0
LayerCount: 2
Fore
SplineSet
317 284 m 1
 452 284 l 1
 642 0 l 1
 598.666992188 0 550.333007812 0 507 0 c 1
 317 284 l 1
75 700 m 5
 384 700 l 6
 540 700 631 618 631 486 c 4
 631 348 540 261 384 261 c 6
 193 261 l 5
 193 0 l 5
 75 0 l 5
 75 700 l 5
193 594 m 5
 193 367 l 5
 379 367 l 6
 467 367 518 408 518 483 c 4
 518 555 467 594 379 594 c 6
 193 594 l 5
EndSplineSet
EndChar

StartChar: S
Encoding: 83 83 78
Width: 650
GlyphClass: 2
Flags: HW
HStem: -9 115<217.423 368.597> 594 111<241.388 395.811>
VStem: 81 128<454.108 563.744> 399.2 131<137.556 241.859>
AnchorPoint: "Anchor-0" 340 -5 basechar 0
LayerCount: 2
Fore
SplineSet
346 705 m 4
 437 705 526 676 591 633 c 5
 542 529 l 5
 466 575 390 594 337 594 c 4
 268 594 219 556 219 509 c 4
 219 445.00390625 289.131835938 424.122070312 366 400.715820312 c 4
 472.907226562 368.163085938 600.58203125 344.595703125 600 198 c 4
 600 73 490 -9 336 -9 c 4
 226 -9 122 41 50 107 c 5
 113 212 l 5
 185 149 263 106 338 106 c 4
 420 106 469 138 469 192 c 4
 469 254.358398438 400.604492188 271.747070312 322 294.731445312 c 4
 215.814453125 325.78125 91 366.91796875 91 510 c 4
 91 630 194 705 346 705 c 4
EndSplineSet
EndChar

StartChar: T
Encoding: 84 84 83
Width: 621
GlyphClass: 2
Flags: HW
HStem: 0 21G<224.8 342.8> 594 106<24 224.8 342.8 544.4>
VStem: 224.8 118<0 594>
AnchorPoint: "Anchor-0" 297 0 basechar 0
LayerCount: 2
Fore
SplineSet
591 594 m 5
 369 594 l 5
 369 0 l 5
 251 0 l 5
 251 594 l 5
 30 594 l 5
 30 700 l 5
 591 700 l 5
 591 594 l 5
EndSplineSet
EndChar

StartChar: U
Encoding: 85 85 87
Width: 719
GlyphClass: 2
Flags: HW
HStem: -5 106<243.19 384.886> 680 20G<60 178 444.4 562.4>
VStem: 60 118<174.664 700> 444.4 118<173.556 700>
LayerCount: 2
Fore
SplineSet
644 700 m 1
 644 290 l 2
 644 107 545 -5 360 -5 c 4
 175 -5 75 107 75 290 c 2
 75 700 l 1
 193 700 l 1
 193 290 l 2
 193 172 250 101 361 101 c 0
 471 101 526 171 526 290 c 2
 526 700 l 1
 644 700 l 1
EndSplineSet
EndChar

StartChar: V
Encoding: 86 86 96
Width: 774
GlyphClass: 2
Flags: HW
LayerCount: 2
Fore
SplineSet
447 0 m 1xb0
 325 0 l 1
 45 700 l 5
 177 700 l 5
 389 151 l 1x70
 601 700 l 1
 729 700 l 1
 447 0 l 1xb0
EndSplineSet
EndChar

StartChar: W
Encoding: 87 87 97
Width: 1104
GlyphClass: 2
Flags: HW
HStem: 0 21G<237.714 375.746 638.084 776.171> 680 20G<24 156.286 867.028 999.6>
LayerCount: 2
Fore
SplineSet
500 682 m 5x70
 596 682 l 5
 604.383789062 636 l 5
 376 0 l 1xb0
 250 0 l 1
 500 682 l 5x70
508 682 m 5
 604 682 l 5
 844 0 l 1x70
 718 0 l 1
 498.751953125 636 l 5
 508 682 l 5
948 700 m 1
 1074 700 l 1
 844 0 l 1x70
 718 0 l 1xb0
 948 700 l 1
30 700 m 1
 156 700 l 1
 376 0 l 1xb0
 250 0 l 1
 30 700 l 1
EndSplineSet
EndChar

StartChar: X
Encoding: 88 88 102
Width: 716
GlyphClass: 2
Flags: HW
LayerCount: 2
Fore
SplineSet
431 364 m 1
 686 0 l 1
 545 0 l 1
 356 264 l 1
 168 0 l 1
 30 0 l 1
 285 359 l 1
 48 700 l 1
 185 700 l 1
 356 457 l 1
 528 700 l 1
 666 700 l 1
 431 364 l 1
EndSplineSet
EndChar

StartChar: Y
Encoding: 89 89 103
Width: 655
GlyphClass: 2
Flags: HW
HStem: 0 21G<240.8 357.8> 680 20G<8 144.115 427.273 564>
VStem: 240.8 117<0 229>
LayerCount: 2
Fore
SplineSet
388 233 m 1
 388 0 l 1
 271 0 l 1
 271 229 l 1
 10 700 l 1
 139 700 l 1
 329 359 l 1
 515 700 l 5
 645 700 l 1
 388 233 l 1
EndSplineSet
EndChar

StartChar: Z
Encoding: 90 90 108
Width: 691
GlyphClass: 2
Flags: HW
HStem: 0 106<192 560.8> 594 106<53 405.6>
LayerCount: 2
Fore
SplineSet
636 615 m 1
 210 106 l 1
 641 106 l 1
 641 0 l 1
 50 0 l 1
 50 85 l 1
 477 594 l 1
 63 594 l 1
 63 700 l 1
 636 700 l 1
 636 615 l 1
EndSplineSet
EndChar

StartChar: a
Encoding: 97 97 112
Width: 606
GlyphClass: 2
Flags: HW
HStem: -5 91<178.544 308.34> 236 84<172.943 359.2> 443 93<178.372 324.672>
VStem: 48 108<109.337 218.992> 359.2 108<0 65 131.58 236 320 409.238>
LayerCount: 2
Fore
SplineSet
423 0 m 1x7c
 423 65 l 1
 385 18 324 -5 247 -5 c 0xbc
 132 -5 60 66 60 160 c 0
 60 257 133 319 261 320 c 2
 422 320 l 1
 422 336 l 2
 422 403 379 443 295 443 c 0
 244 443 191 425 138 389 c 1
 91 469 l 1
 165 513 219 536 320 536 c 0
 452 536 529 466 530 349 c 2
 531 0 l 1
 423 0 l 1x7c
271 86 m 0
 353 86 416 129 422 187 c 1
 422 236 l 1
 278 236 l 2
 203 236 168 216 168 165 c 0
 168 117 207 86 271 86 c 0
EndSplineSet
Substitution2: "Single Substitution lookup 14 subtable" ordfeminine
Substitution2: "'aalt' Access All Alternates lookup 0 subtable" ordfeminine
EndChar

StartChar: ae
Encoding: 230 230 122
Width: 974
GlyphClass: 2
Flags: HW
LayerCount: 2
Fore
SplineSet
677 536 m 0xa780
 843 536 947 417 941 241 c 1
 521 241 l 1
 533 147 599 89 689 89 c 0
 747 89 800 111 839 151 c 1
 901 86 l 1
 848 29 772 -4 680 -4 c 0x6780
 575 -4 495 44 454 124 c 1
 411 38 332 -5 227 -5 c 0
 113 -5 41 61 41 155 c 0
 41 251 116 305 243 306 c 2
 405 306 l 1
 405 336 l 2
 405 403 361 443 277 443 c 0
 220 443 160 424 101 389 c 1x9b80
 72 472 l 1
 147 513 224 536 301 536 c 0
 389 536 453 507 488 456 c 1
 533 507 598 536 677 536 c 0xa780
521 303 m 1
 826 303 l 1
 823 390 765 452 678 452 c 0
 593 452 533 390 521 303 c 1
414 187 m 1
 436 168 l 1
 433 176 431 185 429 195 c 1
 406 200 l 1
 406 244 l 1
 265 244 l 2x9780
 191 244 149 216 149 165 c 0
 149 112 190 76 253 76 c 0
 324 76 381 106 414 187 c 1
EndSplineSet
EndChar

StartChar: b
Encoding: 98 98 123
Width: 665
GlyphClass: 2
Flags: HW
LayerCount: 2
Fore
SplineSet
371 536 m 0xbc
 522 536 625 426 625 264 c 0
 625 105 525 -4 373 -4 c 0
 288 -4 224 30 185 92 c 1xbc
 185 0 l 1
 75 0 l 1x7c
 75 742 l 1
 185 742 l 1
 185 440 l 1
 224 502 288 536 371 536 c 0xbc
347 94 m 0
 442 94 509 166 509 268 c 0
 509 367 442 440 347 440 c 0
 252 440 185 368 185 268 c 0
 185 165 252 94 347 94 c 0
EndSplineSet
EndChar

StartChar: c
Encoding: 99 99 124
Width: 574
GlyphClass: 2
Flags: HW
HStem: -6 106<211.727 351.687> 430 106<211.302 350.319>
VStem: 32 114<173.532 356.468>
AnchorPoint: "Anchor-0" 293 0 basechar 0
LayerCount: 2
Fore
SplineSet
535.65625 94.4169921875 m 1
 485.803710938 32.3515625 407.848632812 -6 317 -6 c 0
 162 -6 40 110 40 265 c 0
 40 420 159 536 317 536 c 0
 402.264648438 536 476.171875 502.21875 526.1484375 446.755859375 c 1
 456.126953125 369.0703125 l 5
 420 410 374.341796875 430 317 430 c 0
 223 430 154 360 154 265 c 0
 154 170 223 100 317 100 c 0
 377.451171875 100 431 125 464.6328125 165.8828125 c 5
 535.65625 94.4169921875 l 1
EndSplineSet
EndChar

StartChar: d
Encoding: 100 100 128
Width: 667
GlyphClass: 2
Flags: HW
HStem: -5 96<212.071 342.807> 439 98<214.62 343.127> 722 20G<408.6 518.6>
VStem: 32 115<167.257 361.448> 408.6 110<0 91 164.877 364.635 440 742>
LayerCount: 2
Fore
SplineSet
592 742 m 1xbc
 592 0 l 1
 482 0 l 1x7c
 482 91 l 1
 444 29 380 -5 295 -5 c 0
 142 -5 40 106 40 268 c 0
 40 428 153 537 303 537 c 0
 389 537 459 492 482 440 c 1
 482 742 l 1
 592 742 l 1xbc
319 91 m 0xbc
 415 91 482 163 482 264 c 0
 482 367 415 439 319 439 c 0
 223 439 156 366 155 264 c 0
 156 163 222 91 319 91 c 0xbc
EndSplineSet
EndChar

StartChar: eth
Encoding: 240 240 129
Width: 590
GlyphClass: 2
Flags: HW
LayerCount: 2
Fore
SplineSet
503 636 m 1
 405 604 l 1
 500 507 556 387 556 265 c 0
 556 101 448 -5 282 -5 c 0
 133 -5 36 85 36 224 c 0
 36 357 125 443 263 443 c 0
 339 443 409 411 441 362 c 1
 419 433 369 506 302 569 c 1
 150 519 l 1
 131 579 l 1
 246 617 l 1
 208 646 167 673 123 694 c 1
 199 747 l 1
 256 721 307 689 352 652 c 1
 485 696 l 1
 503 636 l 1
289 97 m 0
 377 97 434 148 434 226 c 0
 434 307 377 359 289 359 c 0
 202 359 146 309 146 231 c 0
 146 149 203 97 289 97 c 0
EndSplineSet
EndChar

StartChar: dcroat
Encoding: 273 273 131
Width: 679
GlyphClass: 2
Flags: HW
LayerCount: 2
Fore
SplineSet
661 616 m 1xae
 592 616 l 1
 592 0 l 1
 477 0 l 1x6e
 477 91 l 1
 439 29 375 -5 290 -5 c 0
 137 -5 35 106 35 268 c 0
 35 428 138 537 288 537 c 0
 374 537 438 502 477 440 c 1
 477 616 l 1
 378 616 l 1xae
 378 682 l 1
 477 682 l 1xb6
 477 742 l 1
 592 742 l 1xae
 592 682 l 1
 661 682 l 1xb6
 661 616 l 1xae
314 91 m 0xae
 410 91 477 163 477 264 c 0
 477 367 410 439 314 439 c 0
 218 439 151 366 150 264 c 0
 151 163 217 91 314 91 c 0xae
EndSplineSet
EndChar

StartChar: e
Encoding: 101 101 132
Width: 594
GlyphClass: 2
Flags: HW
HStem: -6 106<200.305 344.884> 220 86<99 476.4> 430 106<202.957 327.437>
VStem: 99 44<220 306>
LayerCount: 2
Fore
SplineSet
550.549804688 220 m 5
 434.506835938 220 l 5
 438.1015625 234.17578125 443 259.244140625 443 275 c 4
 443 350 411 430 302 430 c 4
 203 430 151 340 151 265 c 4
 151 170 203 100 302 100 c 4
 376 100 416 123 449 155 c 5
 529.961914062 87.572265625 l 5
 479.971679688 29.5439453125 399.4609375 -6 312 -6 c 4
 137 -6 40 130 40 265 c 4
 40 400 134 536 302 536 c 4
 470 536 554 400 554 265 c 4
 554 249.588867188 552.823242188 234.564453125 550.549804688 220 c 5
550.549804688 220 m 5
 107 220 l 5
 107 306 l 5
 541 306 l 5
 550.549804688 220 l 5
EndSplineSet
EndChar

StartChar: f
Encoding: 102 102 141
Width: 423
GlyphClass: 2
Flags: HW
LayerCount: 2
Fore
SplineSet
326 645 m 0xe8
 287 645 254 625 254 575 c 2
 254 532 l 1
 393 532 l 1
 393 436 l 1
 254 436 l 1
 254 0 l 1
 140 0 l 1
 140 436 l 1
 70 436 l 1
 70 532 l 1
 140 532 l 1
 140 564 l 2
 140 688 235 747 323 747 c 0xe8
 366 747 409 735 443 710 c 1xd8
 398 628 l 1
 376 644 350 645 326 645 c 0xe8
EndSplineSet
Substitution2: "Single Substitution lookup 14 subtable" f.unknown
EndChar

StartChar: g
Encoding: 103 103 142
Width: 655
GlyphClass: 2
Flags: HW
HStem: -197 95<176.745 333.712> 26 90<209.418 334.928> 443 93<208.534 332.293>
VStem: 40 108<183.453 373.657> 394.4 114<-39.207 116 182.702 376.96 446 532>
LayerCount: 2
Fore
SplineSet
580 532 m 1xdc
 580 52 l 2
 580 -101 471 -197 304 -197 c 0
 221 -197 148 -171 83 -127 c 1
 132 -44 l 1
 182 -81 234 -102 299 -102 c 0
 400 -102 466 -43 466 49 c 2
 466 116 l 1
 430 58 370 26 290 26 c 0
 146 26 50 130 50 283 c 0
 50 433 145 535 286 536 c 0
 368 537 429 504 466 446 c 1xec
 466 532 l 1
 580 532 l 1xdc
313 116 m 0
 403 116 466 184 466 280 c 0
 466 376 403 443 313 443 c 0
 222 443 159 375 158 280 c 0
 159 184 221 116 313 116 c 0
EndSplineSet
EndChar

StartChar: gcommaaccent
Encoding: 291 291 144
Width: 640
GlyphClass: 2
Flags: HW
LayerCount: 2
Fore
SplineSet
314 581 m 0xef
 282 581 253 605 253 645 c 0
 253 664 260 681 271 697 c 2
 328 783 l 1
 387 783 l 1
 349 697 l 1
 367 685 376 666 376 645 c 0
 376 608 350 581 314 581 c 0xef
565 532 m 1xdf
 565 52 l 2
 565 -101 456 -197 289 -197 c 0
 206 -197 133 -171 68 -127 c 1
 117 -44 l 1
 167 -81 219 -102 284 -102 c 0
 385 -102 451 -43 451 49 c 2
 451 116 l 1
 415 58 355 26 275 26 c 0
 131 26 35 130 35 283 c 0
 35 433 130 535 271 536 c 0
 353 537 414 504 451 446 c 1xef
 451 532 l 1
 565 532 l 1xdf
298 116 m 0
 388 116 451 184 451 280 c 0
 451 376 388 443 298 443 c 0
 207 443 144 375 143 280 c 0
 144 184 206 116 298 116 c 0
EndSplineSet
EndChar

StartChar: h
Encoding: 104 104 145
Width: 633
GlyphClass: 2
Flags: HW
AnchorPoint: "Anchor-0" 305 0 basechar 0
LayerCount: 2
Fore
SplineSet
375 536 m 0
 499 536 563 458 563 331 c 2
 563 0 l 1
 448 0 l 1
 448 299 l 2
 448 379 410 428 330 428 c 0
 235 427 188 356 188 262 c 2
 188 0 l 1
 73 0 l 1
 73 742 l 1
 188 742 l 1
 188 438 l 5
 216 503 284 536 375 536 c 0
EndSplineSet
EndChar

StartChar: hbar
Encoding: 295 295 146
Width: 815
GlyphClass: 2
Flags: HW
AnchorPoint: "Anchor-0" 332 0 basechar 0
LayerCount: 2
Fore
SplineSet
402 536 m 0xdc
 526 536 600 458 600 331 c 2
 600 0 l 1
 485 0 l 1
 485 299 l 2
 485 379 437 428 357 428 c 0
 262 427 205 356 205 262 c 2
 205 0 l 1
 90 0 l 1
 90 589 l 1
 6 589 l 1xdc
 6 658 l 1
 90 658 l 1xec
 90 742 l 1
 205 742 l 1xdc
 205 658 l 1
 346 658 l 1xec
 346 589 l 1
 205 589 l 1
 205 428 l 1
 243 503 311 536 402 536 c 0xdc
EndSplineSet
EndChar

StartChar: i
Encoding: 105 105 147
Width: 244
GlyphClass: 2
Flags: HW
HStem: 0 21G<54.4004 168.4> 512 20G<54.4004 168.4> 616 138<61.4925 161.308>
VStem: 42.4004 138<635.092 734.908> 54.4004 114<0 532>
LayerCount: 2
Fore
SplineSet
53 685 m 4xe0
 53 723 84 754 122 754 c 0
 160 754 191 723 191 685 c 0
 191 647 160 616 122 616 c 0
 84 616 53 647 53 685 c 4xe0
179 0 m 1xe8
 65 0 l 1
 65 532 l 1
 179 532 l 1
 179 0 l 1xe8
EndSplineSet
EndChar

StartChar: dotlessi
Encoding: 305 305 148
Width: 284
GlyphClass: 2
Flags: HW
LayerCount: 2
Fore
SplineSet
199 0 m 1
 85 0 l 1
 85 532 l 1
 199 532 l 1
 199 0 l 1
EndSplineSet
EndChar

StartChar: ij
Encoding: 307 307 153
Width: 571
GlyphClass: 2
Flags: HW
LayerCount: 2
Fore
SplineSet
142 754 m 0xfa
 180 754 209 725 209 684 c 0
 209 644 180 615 142 615 c 0
 104 615 75 644 75 684 c 0
 75 725 104 754 142 754 c 0xfa
425 754 m 0
 467 754 496 725 496 684 c 0
 496 644 467 614 425 614 c 0
 385 614 355 644 355 684 c 0
 355 725 385 754 425 754 c 0
199 0 m 1xf5
 85 0 l 1
 85 532 l 1
 199 532 l 1
 199 0 l 1xf5
482 532 m 1
 482 -15 l 2
 482 -141 395 -199 310 -199 c 0
 270 -199 230 -186 199 -163 c 1
 237 -74 l 1
 258 -89 283 -98 305 -98 c 0
 340 -98 368 -77 368 -26 c 2
 368 532 l 1
 482 532 l 1
EndSplineSet
EndChar

StartChar: j
Encoding: 106 106 157
Width: 270
GlyphClass: 2
Flags: HW
LayerCount: 2
Fore
SplineSet
57 685 m 0xe0
 57 723 88 754 126 754 c 0
 164 754 195 723 195 685 c 0
 195 647 164 616 126 616 c 0
 88 616 57 647 57 685 c 0xe0
183 532 m 1xe8
 183 -15 l 2
 183 -141 96 -199 11 -199 c 0
 -29 -199 -69 -186 -100 -163 c 1
 -62 -74 l 1
 -41 -89 -16 -98 6 -98 c 0
 41 -98 69 -77 69 -26 c 2
 69 532 l 1
 183 532 l 1xe8
EndSplineSet
EndChar

StartChar: dotlessj
Encoding: 567 567 158
Width: 274
GlyphClass: 2
Flags: HW
LayerCount: 2
Fore
SplineSet
199 532 m 1
 199 -24 l 2
 199 -136 138 -199 36 -198 c 0
 -11 -197 -55 -185 -91 -162 c 1
 -62 -78 l 1
 -39 -93 -14 -101 12 -102 c 0
 59 -103 84 -70 84 -7 c 2
 84 532 l 1
 199 532 l 1
EndSplineSet
EndChar

StartChar: k
Encoding: 107 107 160
Width: 597
GlyphClass: 2
Flags: HW
HStem: 0 21G<60 175 361.57 507.8> 512 20G<347.202 492.8> 722 20G<60 175>
VStem: 60 115<0 149 294 742>
AnchorPoint: "Anchor-0" 108 0 basechar 0
LayerCount: 2
Fore
SplineSet
280 244 m 1
 190 149 l 1
 190 0 l 1
 75 0 l 1
 75 742 l 1
 190 742 l 1
 190 294 l 1
 425 532 l 1
 557 532 l 1
 360 326 l 1
 572 0 l 1
 436 0 l 1
 280 244 l 1
EndSplineSet
EndChar

StartChar: kgreenlandic
Encoding: 312 312 162
Width: 590
GlyphClass: 2
Flags: HW
AnchorPoint: "Anchor-0" 293 0 basechar 0
LayerCount: 2
Fore
SplineSet
291 244 m 1
 199 148 l 1
 199 0 l 1
 85 0 l 1
 85 532 l 1
 199 532 l 1
 199 294 l 1
 435 532 l 1
 567 532 l 1
 370 326 l 1
 582 0 l 1
 446 0 l 1
 291 244 l 1
EndSplineSet
EndChar

StartChar: l
Encoding: 108 108 163
Width: 265
GlyphClass: 2
Flags: HW
HStem: 0 21G<60 175> 722 20G<60 175>
VStem: 60 115<0 742>
AnchorPoint: "Anchor-0" 133 0 basechar 0
LayerCount: 2
Fore
SplineSet
190 0 m 1
 75 0 l 1
 75 742 l 1
 190 742 l 1
 190 0 l 1
EndSplineSet
EndChar

StartChar: lslash
Encoding: 322 322 168
Width: 310
GlyphClass: 2
Flags: HW
AnchorPoint: "Anchor-0" 165 0 basechar 0
LayerCount: 2
Fore
SplineSet
222 421 m 1
 222 0 l 1
 107 0 l 1
 107 388 l 1
 -1 356 l 1
 -21 432 l 1
 107 470 l 1
 107 742 l 1
 222 742 l 1
 222 504 l 1
 317 532 l 1
 337 455 l 1
 222 421 l 1
EndSplineSet
EndChar

StartChar: m
Encoding: 109 109 169
Width: 914
GlyphClass: 2
Flags: HW
LayerCount: 2
Fore
SplineSet
674 536 m 0xdc
 791 536 839 458 839 331 c 2
 839 0 l 1
 724 0 l 1
 724 299 l 2
 724 380 701 429 628 429 c 0
 542 429 512 356 512 263 c 2
 512 0 l 1
 397 0 l 1
 397 299 l 2
 397 380 375 429 302 429 c 0xdc
 215 429 184 356 184 263 c 2
 184 0 l 1
 75 0 l 1
 75 532 l 1
 184 532 l 1xbc
 184 434 l 5
 212 498 264 536 347 536 c 0
 437 536 471 484 492 428 c 1
 516 487 582 536 674 536 c 0xdc
EndSplineSet
EndChar

StartChar: n
Encoding: 110 110 170
Width: 614
GlyphClass: 2
Flags: HW
HStem: 0 21G<60 170 361.2 476.2> 428 108<227.295 330.176>
VStem: 60 110<0 371.01 440 532> 361.2 115<0 391.995>
AnchorPoint: "Anchor-0" 301 0 basechar 0
LayerCount: 2
Fore
SplineSet
361 536 m 0xd8
 480 536 539 458 539 331 c 2
 539 0 l 1
 424 0 l 1
 424 299 l 2
 424 379 391 428 316 428 c 0xd8
 233 428 193 366 185 283 c 1
 185 0 l 1
 75 0 l 1
 75 532 l 1
 185 532 l 1xb8
 185 440 l 5
 213 504 276 536 361 536 c 0xd8
EndSplineSet
EndChar

StartChar: ntilde
Encoding: 241 241 174
Width: 663
GlyphClass: 2
Flags: HW
AnchorPoint: "Anchor-0" 336 0 basechar 0
LayerCount: 2
Fore
SplineSet
296 676 m 0xc540
 272 676 259 659 259 627 c 1
 185 627 l 1xc540
 185 714 217 758 277 758 c 0
 332 758 362 703 396 703 c 0xd180
 421 703 434 720 434 752 c 1
 507 752 l 1xca80
 507 665 476 621 416 621 c 0xd280
 356 621 331 676 296 676 c 0xc540
396 536 m 0xd240
 520 536 594 458 594 331 c 2
 594 0 l 1
 479 0 l 1
 479 299 l 2
 479 379 431 428 351 428 c 0xd240
 263 427 208 366 200 283 c 1
 200 0 l 1
 85 0 l 1
 85 532 l 1
 200 532 l 1xb240
 200 430 l 1
 238 504 306 536 396 536 c 0xd240
EndSplineSet
EndChar

StartChar: o
Encoding: 111 111 175
Width: 624
GlyphClass: 2
Flags: HW
HStem: -6 106<206.923 336.302> 430 106<206.499 336.302>
VStem: 32 109<173.532 356.468> 401.8 109<173.532 356.468>
LayerCount: 2
Fore
SplineSet
149 265 m 4
 149 170 218 100 312 100 c 4
 406 100 475 170 475 265 c 4
 475 360 406 430 312 430 c 4
 218 430 149 360 149 265 c 4
40 265 m 4
 40 420 154 536 312 536 c 4
 470 536 584 420 584 265 c 4
 584 110 470 -6 312 -6 c 4
 157 -6 40 110 40 265 c 4
EndSplineSet
Substitution2: "Single Substitution lookup 14 subtable" ordmasculine
Substitution2: "'aalt' Access All Alternates lookup 0 subtable" ordmasculine
EndChar

StartChar: oslash
Encoding: 248 248 182
Width: 625
GlyphClass: 2
Flags: HW
LayerCount: 2
Fore
SplineSet
468 665 m 1xa6
 421 518 l 1
 524 481 590 389 590 266 c 0
 590 106 477 -4 313 -4 c 0x8e
 292 -4 272 -2 254 1 c 1
 206 -146 l 1
 154 -146 l 1
 206 14 l 1
 101 51 35 144 35 266 c 0
 35 427 148 536 313 536 c 0x66
 334 536 354 534 373 531 c 1x96
 416 665 l 1
 468 665 l 1xa6
144 265 m 0
 144 188 178 129 234 101 c 1
 345 444 l 1
 335 446 324 447 313 447 c 0xa6
 213 447 144 373 144 265 c 0
313 83 m 0
 412 83 482 156 482 265 c 0
 482 341 447 401 392 429 c 1
 281 86 l 1
 291 84 302 83 313 83 c 0
EndSplineSet
EndChar

StartChar: oe
Encoding: 339 339 184
Width: 1040
GlyphClass: 2
Flags: HW
LayerCount: 2
Fore
SplineSet
742 536 m 0x6e
 908 536 1012 417 1007 241 c 1
 584 241 l 1
 596 147 662 89 754 89 c 0
 812 89 865 111 905 151 c 1xae
 966 86 l 1
 913 29 837 -4 744 -4 c 0
 645 -4 571 40 530 114 c 1
 488 40 412 -4 313 -4 c 0
 148 -4 35 106 35 266 c 0
 35 427 148 536 313 536 c 0
 413 536 489 492 530 418 c 1
 572 491 646 536 742 536 c 0x6e
584 303 m 1
 892 303 l 1
 889 390 830 451 743 451 c 0
 657 451 596 391 584 303 c 1
313 92 m 0
 408 92 475 162 475 265 c 0
 475 367 408 437 313 437 c 0x76
 217 437 150 367 150 265 c 0
 150 162 217 92 313 92 c 0
EndSplineSet
EndChar

StartChar: p
Encoding: 112 112 185
Width: 670
GlyphClass: 2
Flags: HW
LayerCount: 2
Fore
SplineSet
376 536 m 0xec
 527 536 630 426 630 264 c 0
 630 105 530 -4 378 -4 c 0
 293 -4 229 30 190 92 c 1
 190 -194 l 1
 75 -194 l 1
 75 532 l 1
 190 532 l 1xdc
 190 440 l 1
 229 502 293 536 376 536 c 0xec
352 94 m 0
 447 94 514 166 514 268 c 0
 514 367 447 440 352 440 c 0
 257 440 190 368 190 268 c 0
 190 165 257 94 352 94 c 0
EndSplineSet
EndChar

StartChar: thorn
Encoding: 254 254 186
Width: 680
GlyphClass: 2
Flags: HW
AnchorPoint: "Anchor-0" 148 0 basechar 0
LayerCount: 2
Fore
SplineSet
391 536 m 0
 542 536 645 426 645 264 c 0
 645 105 545 -4 393 -4 c 0
 308 -4 244 30 205 92 c 1
 205 -194 l 1
 90 -194 l 1
 90 742 l 1
 205 742 l 1
 205 440 l 1
 244 502 308 536 391 536 c 0
367 94 m 0
 462 94 529 166 529 268 c 0
 529 367 462 440 367 440 c 0
 272 440 205 368 205 268 c 0
 205 165 272 94 367 94 c 0
EndSplineSet
EndChar

StartChar: q
Encoding: 113 113 187
Width: 672
GlyphClass: 2
Flags: HW
LayerCount: 2
Fore
SplineSet
597 532 m 1xdc
 597 -194 l 1
 482 -194 l 1
 482 91 l 1
 444 29 380 -5 295 -5 c 0
 142 -5 40 106 40 268 c 0
 40 428 143 537 293 537 c 0
 379 537 443 502 482 440 c 1xec
 482 532 l 1
 597 532 l 1xdc
319 91 m 0
 415 91 482 163 482 264 c 0
 482 367 415 439 319 439 c 0
 223 439 156 366 155 264 c 0
 156 163 222 91 319 91 c 0
EndSplineSet
EndChar

StartChar: r
Encoding: 114 114 188
Width: 434
GlyphClass: 2
Flags: HW
HStem: 0 21G<60 175> 426 110<269.805 379>
VStem: 60 115<0 340.359 426 532>
AnchorPoint: "Anchor-0" 130 0 basechar 0
LayerCount: 2
Fore
SplineSet
190 532 m 5xb0
 190 426 l 5
 226 498 290 536 394 536 c 5
 394 426 l 5xd0
 287 432 199 369 190 278 c 5
 190 0 l 5
 75 0 l 5
 75 532 l 5
 190 532 l 5xb0
EndSplineSet
EndChar

StartChar: s
Encoding: 115 115 192
Width: 538
GlyphClass: 2
Flags: HW
HStem: -11 97<170.903 302.19> 440 97<192.455 338.462>
VStem: 79.998 104<346.985 429.144> 320.798 107<106.8 189.359>
AnchorPoint: "Anchor-0" 272.997 -7 basechar 0
LayerCount: 2
Fore
SplineSet
282.997070312 537 m 0
 349.997070312 537 415.997070312 517 463.997070312 483 c 1
 421.997070312 398 l 1
 374.997070312 427 320.997070312 440 273.997070312 440 c 0
 228.997070312 440 195.997070312 426 195.997070312 388 c 0
 195.997070312 353.7890625 238.768554688 329.887695312 290.997070312 315.55859375 c 0
 373.114257812 293.029296875 478.608398438 271.96875 477.997070312 154 c 0
 477.431640625 45.0009765625 380.997070312 -11 273.997070312 -11 c 0
 195.997070312 -11 112.997070312 22 59.9970703125 70 c 1
 100.997070312 162 l 1
 146.997070312 121 220.997070312 86 278.997070312 86 c 0
 327.997070312 86 370.997070312 110 370.997070312 150 c 4
 370.997070312 189.96875 320.357421875 206.858398438 265.997070312 221.846679688 c 0
 185.7109375 243.983398438 91.400390625 278.515625 91.9970703125 383 c 0
 92.6142578125 490.998046875 185.997070312 537 282.997070312 537 c 0
EndSplineSet
EndChar

StartChar: germandbls
Encoding: 223 223 197
Width: 654
GlyphClass: 2
Flags: HW
LayerCount: 2
Fore
SplineSet
333 747 m 0xf8
 470 747 566 671 566 554 c 0xf8
 566 476 521 408 450 381 c 1
 540 363 606 306 606 210 c 0
 606 88 503 0 343 0 c 2
 292 0 l 1
 292 89 l 1
 352 89 l 2
 438 89 494 138 494 207 c 0xf4
 494 282 428 325 327 325 c 2
 314 325 l 1
 314 413 l 1
 400 413 455 461 455 536 c 0
 455 609 405 654 331 654 c 0
 245 654 192 593 192 496 c 2
 192 0 l 1
 78 0 l 1
 78 488 l 2
 78 645 174 747 333 747 c 0xf8
EndSplineSet
EndChar

StartChar: t
Encoding: 116 116 198
Width: 430
GlyphClass: 2
Flags: HW
HStem: -5 99<243.304 352.224> 436 96<40 120 229 376.8>
VStem: 120 109<104.978 436 532 658>
AnchorPoint: "Anchor-0" 264 0 basechar 0
LayerCount: 2
Fore
SplineSet
376 117 m 1
 405 34 l 1
 363 9 319 -5 274 -5 c 0
 199 -5 130 61 130 170 c 2
 130 436 l 1
 50 436 l 1
 50 532 l 1
 130 532 l 1
 130 658 l 1
 239 658 l 1
 239 532 l 1
 396 532 l 1
 396 436 l 1
 239 436 l 1
 239 181 l 2
 239 126 261 94 296 94 c 0
 320 94 345 102 376 117 c 1
EndSplineSet
EndChar

StartChar: u
Encoding: 117 117 202
Width: 610
GlyphClass: 2
Flags: HW
HStem: -4 108<203.134 302.653> 512 20G<60 175 359 474>
VStem: 60 115<134.922 532> 359 115<0 94 155.685 532>
LayerCount: 2
Fore
SplineSet
535 532 m 1xb8
 535 0 l 1
 420 0 l 1x78
 420 94 l 5
 394 30 337 -3 250 -4 c 0
 128 -4 75 74 75 201 c 2
 75 532 l 1
 190 532 l 1
 190 233 l 2
 190 153 217 104 294 104 c 0
 386 106 420 177 420 270 c 2
 420 532 l 1
 535 532 l 1xb8
EndSplineSet
EndChar

StartChar: v
Encoding: 118 118 211
Width: 579
GlyphClass: 2
Flags: HW
LayerCount: 2
Fore
SplineSet
350 0 m 1xb0
 231 0 l 1
 25 532 l 1
 145 532 l 1
 293 113 l 1x70
 439 532 l 1
 554 532 l 1
 350 0 l 1xb0
EndSplineSet
EndChar

StartChar: w
Encoding: 119 119 212
Width: 857
GlyphClass: 2
Flags: HW
HStem: 0 21G<168.361 286.714 502.486 619.839> 512 20G<24 145.639 341.689 447.511 642.564 764.2>
LayerCount: 2
Fore
SplineSet
477 532 m 1x58
 287 0 l 1x98
 181 0 l 1
 371 532 l 1
 477 532 l 1x58
381 532 m 1
 487 532 l 1
 677 0 l 1x98
 571 0 l 1x48
 381 532 l 1
827 532 m 1
 677 0 l 1x98
 575 0 l 1x48
 570.586914062 34 l 1
 711 532 l 1
 827 532 l 1
30 532 m 1
 146 532 l 1
 286.977539062 32 l 1
 281 0 l 1x98
 180 0 l 1x48
 30 532 l 1
EndSplineSet
EndChar

StartChar: x
Encoding: 120 120 217
Width: 573
GlyphClass: 2
Flags: HW
LayerCount: 2
Fore
SplineSet
289 350 m 1
 410 532 l 1
 536 532 l 1
 365 273 l 1
 548 0 l 1
 416 0 l 1
 289 195 l 1
 153 0 l 1
 25 0 l 1
 213 273 l 1
 38 532 l 1
 170 532 l 1
 289 350 l 1
EndSplineSet
EndChar

StartChar: y
Encoding: 121 121 218
Width: 601
GlyphClass: 2
Flags: HW
HStem: -199 96<69.0969 181.038> 512 20G<24 149.323 383.874 504.8>
LayerCount: 2
Fore
SplineSet
571 532 m 1
 329 -73 l 2
 296 -157 236 -199 156 -199 c 0
 108 -199 70 -185 33 -154 c 1
 78 -77 l 5
 103 -95 123 -103 147 -103 c 4
 182 -103 214 -72 232 -32 c 2
 250 8 l 1
 30 532 l 1
 149 532 l 1
 308 129 l 1
 456 532 l 1
 571 532 l 1
EndSplineSet
EndChar

StartChar: z
Encoding: 122 122 223
Width: 575
GlyphClass: 2
Flags: HW
HStem: 0 94<185.6 460> 438 94<57 315.2>
LayerCount: 2
Fore
SplineSet
506 454 m 1
 202 94 l 1
 515 93 l 1
 515 -1 l 1
 60 0 l 1
 60 78 l 1
 364 438 l 1
 69 438 l 1
 69 532 l 1
 506 531 l 1
 506 454 l 1
EndSplineSet
EndChar

StartChar: fi
Encoding: 64257 64257 227
Width: 657
GlyphClass: 3
Flags: HW
LayerCount: 2
Fore
SplineSet
524 615 m 0xd6
 486 615 457 644 457 684 c 0
 457 725 486 754 524 754 c 0
 562 754 591 725 591 684 c 0
 591 644 562 615 524 615 c 0xd6
107 532 m 5
 107 564 l 6
 107 691 201 747 290 747 c 4
 326 747 361 739 389 723 c 5
 385 623 l 5
 354 637 321 646 293 646 c 4
 252 646 221 627 221 575 c 6
 221 532 l 5
 360 532 l 5xcd
 360 436 l 5
 221 436 l 5
 221 0 l 5
 107 0 l 5
 107 436 l 5
 37 436 l 5xad
 37 532 l 5
 107 532 l 5
467 532 m 1xad
 581 532 l 1
 581 0 l 1
 467 0 l 1
 467 532 l 1xad
EndSplineSet
LCarets2: 1 0
EndChar

StartChar: fl
Encoding: 64258 64258 228
Width: 651
GlyphClass: 3
Flags: HW
LayerCount: 2
Fore
SplineSet
107 532 m 1xdc
 107 578 l 2
 107 681 183 753 291 752 c 0
 326 751 364 743 390 729 c 1
 387 629 l 1
 365 646 338 655 313 655 c 0
 260 656 221 617 221 561 c 2xec
 221 532 l 1
 361 532 l 1
 360 436 l 5
 221 436 l 5
 221 0 l 1
 107 0 l 1
 107 436 l 5
 37 436 l 5
 38 532 l 1
 107 532 l 1xdc
581 742 m 1xdc
 581 0 l 1
 466 0 l 1
 466 742 l 1
 581 742 l 1xdc
EndSplineSet
LCarets2: 1 0
EndChar

StartChar: ordfeminine
Encoding: 170 170 229
Width: 385
GlyphClass: 2
Flags: HW
LayerCount: 2
Fore
SplineSet
198 777 m 0
 285 777 335 735 335 664 c 2
 335 458 l 1
 256 458 l 1
 256 508 l 1
 231 473 192 455 141 455 c 0
 74 455 33 494 33 550 c 0
 33 608 78 640 158 641 c 2
 255 641 l 1
 255 655 l 2
 255 692 230 714 179 714 c 0
 146 714 110 703 72 684 c 1
 52 740 l 1
 100 763 150 777 198 777 c 0
168 509 m 0
 207 509 237 524 255 558 c 1
 255 600 l 1
 174 600 l 2
 133 600 109 585 109 557 c 0
 109 528 132 509 168 509 c 0
EndSplineSet
EndChar

StartChar: ordmasculine
Encoding: 186 186 230
Width: 407
GlyphClass: 2
Flags: HW
LayerCount: 2
Fore
SplineSet
203 776 m 0
 306 776 377 712 377 616 c 0
 377 520 306 456 203 456 c 0
 100 456 30 520 30 616 c 0
 30 712 100 776 203 776 c 0
203 710 m 0
 149 710 111 672 111 615 c 0
 111 558 149 520 203 520 c 0
 257 520 294 558 294 615 c 0
 294 672 257 710 203 710 c 0
EndSplineSet
EndChar

StartChar: Delta
Encoding: 916 916 231
Width: 738
GlyphClass: 2
Flags: HW
LayerCount: 2
Fore
SplineSet
737 0 m 1xb0
 1 0 l 1
 310 700 l 1
 431 700 l 1
 737 0 l 1xb0
571 93 m 1
 367 574 l 1xd0
 163 93 l 1
 571 93 l 1
EndSplineSet
EndChar

StartChar: Omega
Encoding: 8486 8486 232
Width: 882
GlyphClass: 2
Flags: HW
LayerCount: 2
Fore
SplineSet
441 706 m 0
 648 706 801 564 801 372 c 0
 801 272 744 160 664 100 c 1
 873 100 l 1
 873 0 l 1
 541 0 l 1
 541 93 l 1
 631 146 696 259 696 362 c 0
 696 501 588 601 441 601 c 0
 294 601 187 501 187 362 c 0
 187 259 252 146 342 92 c 1
 342 0 l 1
 9 0 l 1
 9 100 l 1
 219 100 l 1
 139 160 82 271 82 372 c 0
 82 564 234 706 441 706 c 0
EndSplineSet
EndChar

StartChar: mu
Encoding: 181 181 233
Width: 675
GlyphClass: 2
Flags: HW
LayerCount: 2
Fore
SplineSet
590 532 m 1xdc
 590 0 l 1
 475 0 l 1xbc
 475 104 l 1
 439 30 372 -3 285 -4 c 0
 255 -4 229 1 205 9 c 1
 205 -194 l 1
 90 -194 l 1
 90 532 l 1
 205 532 l 1
 205 233 l 2
 205 153 252 104 329 104 c 0
 421 106 475 177 475 270 c 2
 475 532 l 1
 590 532 l 1xdc
EndSplineSet
EndChar

StartChar: pi
Encoding: 960 960 234
Width: 725
GlyphClass: 2
Flags: HW
LayerCount: 2
Fore
SplineSet
715 444 m 1
 568 444 l 1
 568 0 l 1
 472 0 l 1
 472 444 l 1
 325 444 l 1
 275 0 l 1
 179 0 l 1
 228 444 l 1
 177 444 l 2
 121 444 80 409 81 360 c 0
 81 337 91 308 107 284 c 1
 27 253 l 1
 5 289 -9 338 -10 380 c 0
 -11 466 63 532 163 532 c 2
 715 532 l 1
 715 444 l 1
EndSplineSet
EndChar

StartChar: zero
Encoding: 48 48 235
Width: 600
Flags: HW
LayerCount: 2
Fore
SplineSet
301 703 m 0
 472 703 567 577 567 350 c 0
 567 123 482 -3 301 -3 c 4
 119 -3 33 123 33 350 c 0
 33 577 129 703 301 703 c 0
301 600 m 0
 208 600 154 528 154 350 c 0
 154 183 208 100 301 100 c 0
 393 100 446 183 446 350 c 0
 446 528 393 600 301 600 c 0
EndSplineSet
Substitution2: "'frac' Diagonal Fractions lookup 9 subtable" zero.numr
Substitution2: "'dnom' Denominators lookup 7 subtable" zero.dnom
Substitution2: "'numr' Numerators lookup 6 subtable" zero.numr
AlternateSubs2: "'aalt' Access All Alternates lookup 1 subtable" zero.numr zero.dnom
EndChar

StartChar: one
Encoding: 49 49 236
Width: 600
Flags: HW
LayerCount: 2
Fore
SplineSet
432 0 m 5
 314 0 l 5
 314 563 l 5
 138 515 l 5
 138 630 l 5
 432 718 l 5
 432 0 l 5
EndSplineSet
Substitution2: "'frac' Diagonal Fractions lookup 9 subtable" one.numr
Substitution2: "'dnom' Denominators lookup 7 subtable" one.dnom
Substitution2: "'numr' Numerators lookup 6 subtable" one.numr
Substitution2: "'sups' Superscript lookup 5 subtable" onesuperior
AlternateSubs2: "'aalt' Access All Alternates lookup 1 subtable" onesuperior one.numr one.dnom
EndChar

StartChar: two
Encoding: 50 50 237
Width: 600
Flags: HW
LayerCount: 2
Fore
SplineSet
300 705 m 0
 432 705 523 636 523 529 c 0
 523 458 469 379 395 299 c 2
 213 106 l 1
 555 106 l 1
 555 0 l 1
 57 0 l 1
 57 86 l 1
 315 363 l 2
 366 415 400 472 400 512 c 0
 400 568 356 602 283 602 c 0
 222 602 151 568 92 514 c 1
 45 605 l 1
 121 667 210 705 300 705 c 0
EndSplineSet
Substitution2: "'frac' Diagonal Fractions lookup 9 subtable" two.numr
Substitution2: "'dnom' Denominators lookup 7 subtable" two.dnom
Substitution2: "'numr' Numerators lookup 6 subtable" two.numr
Substitution2: "'sups' Superscript lookup 5 subtable" twosuperior
AlternateSubs2: "'aalt' Access All Alternates lookup 1 subtable" twosuperior two.numr two.dnom
EndChar

StartChar: three
Encoding: 51 51 238
Width: 600
Flags: HW
LayerCount: 2
Fore
SplineSet
312.5 409 m 1
 348.5 405 l 2
 465.5 395 545.5 327 545.5 217 c 0
 545.5 86 446.5 -5 290.5 -5 c 0
 204.5 -5 114.5 25 54.5 71 c 1
 103.5 167 l 1
 153.5 120 218.5 94 282.5 94 c 0
 375.5 94 429.5 142 429.5 214 c 0
 429.5 290 374.5 329 281.5 329 c 2
 184.5 329 l 1
 184.5 398 l 1
 366.5 594 l 1
 86.5 594 l 1
 86.5 699 l 1
 512.5 699 l 1
 512.5 625 l 1
 312.5 409 l 1
EndSplineSet
Substitution2: "'frac' Diagonal Fractions lookup 9 subtable" three.numr
Substitution2: "'dnom' Denominators lookup 7 subtable" three.dnom
Substitution2: "'numr' Numerators lookup 6 subtable" three.numr
Substitution2: "'sups' Superscript lookup 5 subtable" threesuperior
AlternateSubs2: "'aalt' Access All Alternates lookup 1 subtable" threesuperior three.numr three.dnom
EndChar

StartChar: four
Encoding: 52 52 239
Width: 600
Flags: HW
LayerCount: 2
Fore
SplineSet
163 277 m 5
 361 277 l 1
 361 700 l 1
 471 700 l 1
 471 277 l 1
 573 277 l 1
 573 172 l 1
 471 172 l 1
 471 0 l 1
 361 0 l 1
 361 172 l 1
 27 172 l 1
 27 260 l 1
 316 700 l 1
 440 700 l 5
 163 277 l 5
EndSplineSet
Substitution2: "'frac' Diagonal Fractions lookup 9 subtable" four.numr
Substitution2: "'dnom' Denominators lookup 7 subtable" four.dnom
Substitution2: "'numr' Numerators lookup 6 subtable" four.numr
AlternateSubs2: "'aalt' Access All Alternates lookup 1 subtable" four.numr four.dnom
EndChar

StartChar: five
Encoding: 53 53 240
Width: 600
Flags: HW
LayerCount: 2
Fore
SplineSet
526 594 m 1
 208 594 l 1
 208 443 l 1
 304 444 l 2
 456 444 554 354 554 231 c 0
 554 89 452 -4 295 -4 c 0
 212 -4 115 28 46 76 c 1
 103 178 l 5
 159 141 223 104 286 104 c 0
 377 104 428 142 428 221 c 0
 428 292 373 334 283 334 c 0
 241 334 146 330 99 325 c 1
 99 700 l 1
 525 700 l 1
 526 594 l 1
EndSplineSet
Substitution2: "'frac' Diagonal Fractions lookup 9 subtable" five.numr
Substitution2: "'dnom' Denominators lookup 7 subtable" five.dnom
Substitution2: "'numr' Numerators lookup 6 subtable" five.numr
AlternateSubs2: "'aalt' Access All Alternates lookup 1 subtable" five.numr five.dnom
EndChar

StartChar: six
Encoding: 54 54 241
Width: 600
Flags: HW
LayerCount: 2
Fore
SplineSet
336.5 705 m 0
 405.5 705 488.5 684 545.5 652 c 1
 499.5 563 l 1
 456.5 591 397.5 607 344.5 607 c 0
 208.5 607 145.5 505 149.5 354 c 1
 186.5 419 252.5 453 340.5 453 c 0
 480.5 453 565.5 366 565.5 230 c 0
 565.5 85 468.5 -5 319.5 -5 c 0
 142.5 -5 34.5 121 34.5 336 c 0
 34.5 559 151.5 705 336.5 705 c 0
318.5 360 m 0
 223.5 360 167.5 299 168.5 227 c 0
 167.5 166 212.5 97 313.5 97 c 0
 398.5 97 455.5 146 455.5 231 c 0
 455.5 311 403.5 360 318.5 360 c 0
EndSplineSet
Substitution2: "'frac' Diagonal Fractions lookup 9 subtable" six.numr
Substitution2: "'dnom' Denominators lookup 7 subtable" six.dnom
Substitution2: "'numr' Numerators lookup 6 subtable" six.numr
AlternateSubs2: "'aalt' Access All Alternates lookup 1 subtable" six.numr six.dnom
EndChar

StartChar: seven
Encoding: 55 55 242
Width: 600
Flags: HW
LayerCount: 2
Fore
SplineSet
554.5 610 m 1
 275.5 0 l 1
 150.5 0 l 1
 422.5 594 l 1
 45.5 594 l 1
 45.5 700 l 1
 554.5 700 l 1
 554.5 610 l 1
EndSplineSet
Substitution2: "'frac' Diagonal Fractions lookup 9 subtable" seven.numr
Substitution2: "'dnom' Denominators lookup 7 subtable" seven.dnom
Substitution2: "'numr' Numerators lookup 6 subtable" seven.numr
AlternateSubs2: "'aalt' Access All Alternates lookup 1 subtable" seven.numr seven.dnom
EndChar

StartChar: eight
Encoding: 56 56 243
Width: 600
Flags: HW
LayerCount: 2
Fore
SplineSet
299.5 705 m 0xec
 443.5 705 534.5 636 534.5 524 c 0xf4
 534.5 456 510.5 403 445.5 374 c 1
 530.5 346 569.5 281 569.5 196 c 0
 569.5 71 465.5 -5 299.5 -5 c 0
 134.5 -5 30.5 71 30.5 194 c 0xf2
 30.5 280 70.5 346 159.5 374 c 1
 91.5 405 65.5 460 65.5 528 c 0
 65.5 638 156.5 705 299.5 705 c 0xec
299.5 610 m 0
 225.5 610 165.5 576 165.5 517 c 0
 165.5 457 225.5 425 299.5 425 c 0
 374.5 425 433.5 457 433.5 517 c 0
 433.5 577 374.5 610 299.5 610 c 0
299.5 313 m 0xf2
 210.5 313 147.5 275 147.5 207 c 0
 147.5 136 209.5 93 299.5 93 c 4
 389.5 93 452.5 136 452.5 207 c 0
 452.5 275 389.5 313 299.5 313 c 0xf2
EndSplineSet
Substitution2: "'frac' Diagonal Fractions lookup 9 subtable" eight.numr
Substitution2: "'dnom' Denominators lookup 7 subtable" eight.dnom
Substitution2: "'numr' Numerators lookup 6 subtable" eight.numr
AlternateSubs2: "'aalt' Access All Alternates lookup 1 subtable" eight.numr eight.dnom
EndChar

StartChar: nine
Encoding: 57 57 244
Width: 600
Flags: HW
LayerCount: 2
Fore
SplineSet
263.5 -5 m 0
 194.5 -5 111.5 16 54.5 48 c 1
 100.5 137 l 1
 143.5 109 202.5 93 255.5 93 c 0
 391.5 93 454.5 195 450.5 346 c 1
 413.5 281 347.5 247 259.5 247 c 0
 119.5 247 34.5 334 34.5 470 c 0
 34.5 615 131.5 705 280.5 705 c 0
 457.5 705 565.5 579 565.5 364 c 0
 565.5 141 448.5 -5 263.5 -5 c 0
281.5 340 m 0
 376.5 340 432.5 401 431.5 473 c 0
 432.5 534 387.5 603 286.5 603 c 0
 201.5 603 144.5 554 144.5 469 c 0
 144.5 389 196.5 340 281.5 340 c 0
EndSplineSet
Substitution2: "'frac' Diagonal Fractions lookup 9 subtable" nine.numr
Substitution2: "'dnom' Denominators lookup 7 subtable" nine.dnom
Substitution2: "'numr' Numerators lookup 6 subtable" nine.numr
AlternateSubs2: "'aalt' Access All Alternates lookup 1 subtable" nine.numr nine.dnom
EndChar

StartChar: fraction
Encoding: 8260 8260 245
Width: 80
Flags: HW
LayerCount: 2
Fore
SplineSet
-277 0 m 1
 238 700 l 1
 348 700 l 1
 -166 0 l 1
 -277 0 l 1
EndSplineSet
EndChar

StartChar: onehalf
Encoding: 189 189 246
Width: 839
Flags: HW
LayerCount: 2
Fore
SplineSet
99 287 m 1
 99 631 l 1
 16 631 l 1
 16 700 l 1
 183 700 l 1
 183 287 l 1
 99 287 l 1
50 0 m 1
 565 700 l 1
 675 700 l 1
 161 0 l 1
 50 0 l 1
647 416 m 0
 729 416 786 375 786 311 c 0
 786 268 754 221 706 175 c 2
 598 67 l 1
 804 67 l 1
 804 0 l 1
 493 0 l 1
 493 57 l 1
 650 217 l 2
 679 246 699 278 699 300 c 0
 699 329 675 347 634 347 c 0
 598 347 554 327 517 295 c 1
 484 356 l 1
 533 394 589 416 647 416 c 0
EndSplineSet
EndChar

StartChar: onequarter
Encoding: 188 188 247
Width: 817
Flags: HW
LayerCount: 2
Fore
SplineSet
99 287 m 1xb8
 99 631 l 1
 16 631 l 1
 16 700 l 1
 183 700 l 1
 183 287 l 1
 99 287 l 1xb8
50 0 m 1
 565 700 l 1
 675 700 l 1
 161 0 l 1
 50 0 l 1
655 159 m 1
 655 261 l 1
 734 261 l 1x78
 734 159 l 1
 795 159 l 1xb8
 795 97 l 1
 734 97 l 1x78
 734 0 l 1
 655 0 l 1xb8
 655 97 l 1
 451 97 l 1
 451 156 l 1x78
 594 413 l 1
 674 413 l 1
 535 159 l 1
 655 159 l 1
EndSplineSet
EndChar

StartChar: threequarters
Encoding: 190 190 248
Width: 878
Flags: HW
LayerCount: 2
Fore
SplineSet
112 0 m 1xbe
 627 700 l 1
 737 700 l 1
 223 0 l 1
 112 0 l 1xbe
181 529 m 1
 203 527 l 2
 272 520 320 480 320 415 c 0
 320 338 258 283 161 283 c 0
 106 283 48 302 11 329 c 1
 46 395 l 1
 77 364 115 347 155 347 c 0
 207 347 238 373 238 414 c 0
 238 455 207 476 154 476 c 2
 92 476 l 1
 92 522 l 1
 204 636 l 1
 31 636 l 1
 31 698 l 1
 300 698 l 1
 300 649 l 1
 181 529 l 1
717 159 m 1
 717 261 l 1
 796 261 l 1x7e
 796 159 l 1
 857 159 l 1xbe
 857 97 l 1
 796 97 l 1x7e
 796 0 l 1
 717 0 l 1xbe
 717 97 l 1
 513 97 l 1
 513 156 l 1x7e
 656 413 l 1
 736 413 l 1
 597 159 l 1
 717 159 l 1
EndSplineSet
EndChar

StartChar: oneeighth
Encoding: 8539 8539 249
Width: 834
Flags: HW
LayerCount: 2
Fore
SplineSet
99 287 m 1xbe40
 99 631 l 1
 16 631 l 1
 16 700 l 1
 183 700 l 1
 183 287 l 1
 99 287 l 1xbe40
50 0 m 1x7d80
 565 700 l 1
 675 700 l 1
 161 0 l 1
 50 0 l 1x7d80
630 416 m 0
 720 416 778 375 778 308 c 0xbe80
 778 270 754 238 717 221 c 1
 768 203 799 165 799 116 c 0
 799 42 734 -3 631 -3 c 0
 527 -3 462 42 462 115 c 0xbe40
 462 164 495 203 548 221 c 1
 508 239 484 272 484 311 c 0
 484 376 541 416 630 416 c 0
631 360 m 0
 582 360 554 339 554 304 c 0
 554 268 582 248 631 248 c 0xbd80
 679 248 707 268 707 304 c 0
 707 339 679 360 631 360 c 0
630 186 m 0xbe40
 574 186 541 163 541 124 c 0
 541 82 574 59 631 59 c 0
 687 59 720 82 720 123 c 0
 720 163 688 186 630 186 c 0xbe40
EndSplineSet
EndChar

StartChar: threeeighths
Encoding: 8540 8540 250
Width: 896
Flags: HW
LayerCount: 2
Fore
SplineSet
112 0 m 1x7f90
 627 700 l 1
 737 700 l 1
 223 0 l 1
 112 0 l 1x7f90
181 529 m 1
 203 527 l 2
 272 520 320 480 320 415 c 0
 320 338 258 283 161 283 c 0
 106 283 48 302 11 329 c 1
 46 395 l 1
 77 364 115 347 155 347 c 0
 207 347 238 373 238 414 c 0
 238 455 207 476 154 476 c 2
 92 476 l 1
 92 522 l 1
 204 636 l 1
 31 636 l 1
 31 698 l 1
 300 698 l 1
 300 649 l 1
 181 529 l 1
692 416 m 0xaf60
 782 416 840 375 840 308 c 0xafa0
 840 270 816 238 779 221 c 1
 830 203 861 165 861 116 c 0
 861 42 796 -3 693 -3 c 0
 589 -3 524 42 524 115 c 0xaf90
 524 164 557 203 610 221 c 1
 570 239 546 272 546 311 c 0
 546 376 603 416 692 416 c 0xaf60
693 360 m 0
 644 360 616 339 616 304 c 0
 616 268 644 248 693 248 c 0
 741 248 769 268 769 304 c 0
 769 339 741 360 693 360 c 0
692 186 m 0xaf90
 636 186 603 163 603 124 c 0
 603 82 636 59 693 59 c 0
 749 59 782 82 782 123 c 0
 782 163 750 186 692 186 c 0xaf90
EndSplineSet
EndChar

StartChar: fiveeighths
Encoding: 8541 8541 251
Width: 914
Flags: HW
LayerCount: 2
Fore
SplineSet
134 633 m 1xafc8
 134 537 l 1
 149 541 174 543 187 543 c 0
 282 543 343 497 343 424 c 0
 343 339 279 284 180 284 c 0
 128 284 66 303 23 332 c 1
 57 398 l 1
 91 365 133 348 171 348 c 0x7fc8
 223 348 254 374 254 419 c 0
 254 457 223 480 171 480 c 0
 147 480 86 477 57 472 c 1
 57 700 l 1
 325 700 l 1
 325 633 l 1
 134 633 l 1xafc8
130 0 m 1
 645 700 l 1
 755 700 l 1
 241 0 l 1
 130 0 l 1
710 416 m 0xafb0
 800 416 858 375 858 308 c 0xafd0
 858 270 834 238 797 221 c 1
 848 203 879 165 879 116 c 0
 879 42 814 -3 711 -3 c 0
 607 -3 542 42 542 115 c 0xafc8
 542 164 575 203 628 221 c 1
 588 239 564 272 564 311 c 0
 564 376 621 416 710 416 c 0xafb0
711 360 m 0
 662 360 634 339 634 304 c 0
 634 268 662 248 711 248 c 0
 759 248 787 268 787 304 c 0
 787 339 759 360 711 360 c 0
710 186 m 0xafc8
 654 186 621 163 621 124 c 0
 621 82 654 59 711 59 c 0
 767 59 800 82 800 123 c 0
 800 163 768 186 710 186 c 0xafc8
EndSplineSet
EndChar

StartChar: seveneighths
Encoding: 8542 8542 252
Width: 881
Flags: HW
LayerCount: 2
Fore
SplineSet
184 287 m 1xbe40
 95 287 l 1
 260 633 l 1
 106 633 l 1
 106 572 l 1
 32 572 l 1
 32 700 l 1
 351 700 l 1
 351 640 l 1
 184 287 l 1xbe40
97 0 m 1x7d80
 612 700 l 1
 722 700 l 1
 208 0 l 1
 97 0 l 1x7d80
677 416 m 0
 767 416 825 375 825 308 c 0xbe80
 825 270 801 238 764 221 c 1
 815 203 846 165 846 116 c 0
 846 42 781 -3 678 -3 c 0
 574 -3 509 42 509 115 c 0xbe40
 509 164 542 203 595 221 c 1
 555 239 531 272 531 311 c 0
 531 376 588 416 677 416 c 0
678 360 m 0
 629 360 601 339 601 304 c 0
 601 268 629 248 678 248 c 0xbd80
 726 248 754 268 754 304 c 0
 754 339 726 360 678 360 c 0
677 186 m 0xbe40
 621 186 588 163 588 124 c 0
 588 82 621 59 678 59 c 0
 734 59 767 82 767 123 c 0
 767 163 735 186 677 186 c 0xbe40
EndSplineSet
EndChar

StartChar: zero.dnom
Encoding: 65537 -1 253
Width: 447
Flags: HW
LayerCount: 2
Fore
SplineSet
223 415 m 0
 338 415 408 337 408 207 c 0
 408 76 338 -2 223 -2 c 0
 108 -2 38 76 38 207 c 0
 38 337 108 415 223 415 c 0
223 348 m 0
 154 348 115 296 115 207 c 0
 115 117 154 66 223 66 c 0
 292 66 332 117 332 207 c 0
 332 296 292 348 223 348 c 0
EndSplineSet
EndChar

StartChar: one.dnom
Encoding: 65538 -1 254
Width: 262
Flags: HW
LayerCount: 2
Fore
SplineSet
99 0 m 1
 99 345 l 1
 16 305 l 1
 16 373 l 1
 183 443 l 5
 183 0 l 1
 99 0 l 1
EndSplineSet
EndChar

StartChar: two.dnom
Encoding: 65539 -1 255
Width: 383
Flags: HW
LayerCount: 2
Fore
SplineSet
191 416 m 0
 273 416 330 375 330 311 c 0
 330 268 298 221 250 175 c 2
 142 67 l 1
 348 67 l 1
 348 0 l 1
 37 0 l 1
 37 57 l 1
 194 217 l 2
 223 246 243 278 243 300 c 0
 243 329 219 347 178 347 c 0
 142 347 98 327 61 295 c 1
 28 356 l 1
 77 394 133 416 191 416 c 0
EndSplineSet
EndChar

StartChar: three.dnom
Encoding: 65540 -1 256
Width: 355
Flags: HW
LayerCount: 2
Fore
SplineSet
181 243 m 1
 203 240 l 2
 272 233 320 193 320 128 c 0
 320 51 258 -3 161 -3 c 0
 106 -3 48 15 11 43 c 1
 46 108 l 1
 77 77 115 61 155 61 c 0
 207 61 238 87 238 127 c 0
 238 168 207 189 154 189 c 2
 92 189 l 1
 92 235 l 1
 204 349 l 1
 31 349 l 1
 31 412 l 1
 300 412 l 1
 300 363 l 1
 181 243 l 1
EndSplineSet
EndChar

StartChar: four.dnom
Encoding: 65541 -1 257
Width: 394
Flags: HW
LayerCount: 2
Fore
SplineSet
232 159 m 1xa0
 232 413 l 1
 311 413 l 1x60
 311 159 l 1
 372 159 l 1xa0
 372 97 l 1
 311 97 l 1x60
 311 0 l 1
 232 0 l 1xa0
 232 97 l 1
 28 97 l 1
 28 156 l 1x60
 221 413 l 5
 301 413 l 5
 112 159 l 1
 232 159 l 1xa0
EndSplineSet
EndChar

StartChar: five.dnom
Encoding: 65542 -1 258
Width: 377
Flags: HW
LayerCount: 2
Fore
SplineSet
134 347 m 1
 134 250 l 1
 149 254 174 257 187 257 c 0
 282 257 343 210 343 137 c 0
 343 52 279 -3 180 -3 c 0
 128 -3 66 17 23 45 c 1
 57 111 l 1
 91 79 133 61 171 61 c 0
 223 61 254 87 254 132 c 0
 254 171 223 194 171 194 c 0
 147 194 86 191 57 185 c 1
 57 413 l 1
 325 413 l 1
 325 347 l 1
 134 347 l 1
EndSplineSet
EndChar

StartChar: six.dnom
Encoding: 65543 -1 259
Width: 401
Flags: HW
LayerCount: 2
Fore
SplineSet
228 416 m 0
 272 416 323 404 359 384 c 1
 327 324 l 1
 300 341 266 350 232 350 c 0
 155 350 113 297 120 205 c 1
 135 243 176 268 234 268 c 0
 317 268 370 216 370 136 c 0
 370 50 309 -3 216 -3 c 0
 106 -3 38 72 38 199 c 0
 38 330 112 416 228 416 c 0
215 206 m 0
 162 206 131 175 131 134 c 0
 131 101 156 65 212 65 c 0
 261 65 292 91 292 137 c 0
 292 181 263 206 215 206 c 0
EndSplineSet
EndChar

StartChar: seven.dnom
Encoding: 65544 -1 260
Width: 374
Flags: HW
LayerCount: 2
Fore
SplineSet
184 0 m 1
 95 0 l 1
 260 347 l 5
 32 347 l 5
 32 413 l 1
 351 413 l 1
 351 353 l 1
 184 0 l 1
EndSplineSet
EndChar

StartChar: eight.dnom
Encoding: 65545 -1 261
Width: 407
Flags: HW
LayerCount: 2
Fore
SplineSet
203 416 m 0xec
 293 416 351 375 351 308 c 0xf4
 351 270 327 238 290 221 c 1
 341 203 372 165 372 116 c 0
 372 42 307 -3 204 -3 c 0
 100 -3 35 42 35 115 c 0xf2
 35 164 68 203 121 221 c 1
 81 239 57 272 57 311 c 0
 57 376 114 416 203 416 c 0xec
204 360 m 0
 155 360 127 339 127 304 c 0
 127 268 155 248 204 248 c 0
 252 248 280 268 280 304 c 0
 280 339 252 360 204 360 c 0
203 186 m 0xf2
 147 186 114 163 114 124 c 0
 114 82 147 59 204 59 c 0
 260 59 293 82 293 123 c 0
 293 163 261 186 203 186 c 0xf2
EndSplineSet
EndChar

StartChar: nine.dnom
Encoding: 65546 -1 262
Width: 403
Flags: HW
LayerCount: 2
Fore
SplineSet
176 -3 m 0
 131 -3 81 9 44 29 c 1
 77 89 l 1
 103 72 137 63 171 63 c 0
 249 63 291 116 284 208 c 1
 268 170 228 144 170 144 c 0
 87 144 33 197 33 277 c 0
 33 363 94 416 187 416 c 0
 298 416 365 340 365 213 c 0
 365 83 291 -3 176 -3 c 0
188 207 m 0
 242 207 272 238 272 278 c 0
 272 312 248 348 191 348 c 0
 142 348 112 322 112 276 c 0
 112 233 140 207 188 207 c 0
EndSplineSet
EndChar

StartChar: zero.numr
Encoding: 65547 -1 263
Width: 447
Flags: HW
LayerCount: 2
Fore
SplineSet
223 702 m 0
 338 702 408 624 408 494 c 0
 408 363 338 284 223 284 c 0
 108 284 38 363 38 494 c 0
 38 624 108 702 223 702 c 0
223 634 m 0
 154 634 115 583 115 494 c 0
 115 404 154 352 223 352 c 0
 292 352 332 404 332 494 c 0
 332 583 292 634 223 634 c 0
EndSplineSet
Substitution2: "Single Substitution lookup 14 subtable" zero.dnom
Substitution2: "'aalt' Access All Alternates lookup 0 subtable" zero.dnom
EndChar

StartChar: one.numr
Encoding: 65548 -1 264
Width: 262
Flags: HW
LayerCount: 2
Fore
SplineSet
99 287 m 1
 99 631 l 1
 16 601 l 1
 16 670 l 1
 183 730 l 5
 183 287 l 1
 99 287 l 1
EndSplineSet
Substitution2: "Single Substitution lookup 14 subtable" one.dnom
Substitution2: "'aalt' Access All Alternates lookup 0 subtable" one.dnom
EndChar

StartChar: two.numr
Encoding: 65549 -1 265
Width: 383
Flags: HW
LayerCount: 2
Fore
SplineSet
191 703 m 0
 273 703 330 662 330 598 c 0
 330 555 298 508 250 462 c 2
 142 353 l 1
 348 353 l 1
 348 287 l 1
 37 287 l 1
 37 343 l 1
 194 504 l 2
 223 532 243 564 243 586 c 0
 243 616 219 633 178 633 c 0
 142 633 98 613 61 581 c 1
 28 643 l 1
 77 680 133 703 191 703 c 0
EndSplineSet
Substitution2: "Single Substitution lookup 14 subtable" two.dnom
Substitution2: "'aalt' Access All Alternates lookup 0 subtable" two.dnom
EndChar

StartChar: three.numr
Encoding: 65550 -1 266
Width: 355
Flags: HW
LayerCount: 2
Fore
SplineSet
181 529 m 1
 203 527 l 2
 272 520 320 480 320 415 c 0
 320 338 258 283 161 283 c 0
 106 283 48 302 11 329 c 1
 46 395 l 1
 77 364 115 347 155 347 c 0
 207 347 238 373 238 414 c 0
 238 455 207 476 154 476 c 2
 92 476 l 1
 92 522 l 1
 204 636 l 1
 31 636 l 1
 31 698 l 1
 300 698 l 1
 300 649 l 1
 181 529 l 1
EndSplineSet
Substitution2: "Single Substitution lookup 14 subtable" three.dnom
Substitution2: "'aalt' Access All Alternates lookup 0 subtable" three.dnom
EndChar

StartChar: four.numr
Encoding: 65551 -1 267
Width: 394
Flags: HW
LayerCount: 2
Fore
SplineSet
232 446 m 1
 232 700 l 1
 311 700 l 1
 311 446 l 1
 372 446 l 1
 372 384 l 1
 311 384 l 1
 311 287 l 1
 232 287 l 1
 232 384 l 1
 28 384 l 1
 28 443 l 1
 211 700 l 5
 291 700 l 5
 112 446 l 1
 232 446 l 1
EndSplineSet
Substitution2: "Single Substitution lookup 14 subtable" four.dnom
Substitution2: "'aalt' Access All Alternates lookup 0 subtable" four.dnom
EndChar

StartChar: five.numr
Encoding: 65552 -1 268
Width: 377
Flags: HW
LayerCount: 2
Fore
SplineSet
134 633 m 1
 134 537 l 1
 149 541 174 543 187 543 c 0
 282 543 343 497 343 424 c 0
 343 339 279 284 180 284 c 0
 128 284 66 303 23 332 c 1
 57 398 l 1
 91 365 133 348 171 348 c 0
 223 348 254 374 254 419 c 0
 254 457 223 480 171 480 c 0
 147 480 86 477 57 472 c 1
 57 700 l 1
 325 700 l 1
 325 633 l 1
 134 633 l 1
EndSplineSet
Substitution2: "Single Substitution lookup 14 subtable" five.dnom
Substitution2: "'aalt' Access All Alternates lookup 0 subtable" five.dnom
EndChar

StartChar: six.numr
Encoding: 65553 -1 269
Width: 401
Flags: HW
LayerCount: 2
Fore
SplineSet
228 703 m 0
 272 703 323 690 359 671 c 1
 327 610 l 1
 300 627 266 636 232 636 c 0
 155 636 113 583 120 491 c 1
 135 530 176 555 234 555 c 0
 317 555 370 503 370 422 c 0
 370 337 309 283 216 283 c 0
 106 283 38 359 38 486 c 0
 38 617 112 703 228 703 c 0
215 492 m 0
 162 492 131 461 131 421 c 0
 131 387 156 352 212 352 c 0
 261 352 292 378 292 424 c 0
 292 467 263 492 215 492 c 0
EndSplineSet
Substitution2: "Single Substitution lookup 14 subtable" six.dnom
Substitution2: "'aalt' Access All Alternates lookup 0 subtable" six.dnom
EndChar

StartChar: seven.numr
Encoding: 65554 -1 270
Width: 374
Flags: HW
LayerCount: 2
Fore
SplineSet
184 287 m 1
 95 287 l 1
 260 633 l 5
 32 633 l 5
 32 700 l 1
 351 700 l 1
 351 640 l 1
 184 287 l 1
EndSplineSet
Substitution2: "Single Substitution lookup 14 subtable" seven.dnom
Substitution2: "'aalt' Access All Alternates lookup 0 subtable" seven.dnom
EndChar

StartChar: eight.numr
Encoding: 65555 -1 271
Width: 407
Flags: HW
LayerCount: 2
Fore
SplineSet
203 703 m 0xec
 293 703 351 662 351 595 c 0xf4
 351 556 327 525 290 508 c 1
 341 490 372 451 372 403 c 0
 372 329 307 283 204 283 c 0
 100 283 35 329 35 402 c 0xf2
 35 451 68 490 121 508 c 1
 81 526 57 558 57 598 c 0
 57 663 114 703 203 703 c 0xec
204 646 m 0
 155 646 127 626 127 590 c 0
 127 555 155 535 204 535 c 0
 252 535 280 555 280 590 c 0
 280 626 252 646 204 646 c 0
203 473 m 0xf2
 147 473 114 450 114 410 c 0
 114 369 147 346 204 346 c 0
 260 346 293 368 293 410 c 0
 293 450 261 473 203 473 c 0xf2
EndSplineSet
Substitution2: "Single Substitution lookup 14 subtable" eight.dnom
Substitution2: "'aalt' Access All Alternates lookup 0 subtable" eight.dnom
EndChar

StartChar: nine.numr
Encoding: 65556 -1 272
Width: 403
Flags: HW
LayerCount: 2
Fore
SplineSet
176 283 m 0
 131 283 81 296 44 316 c 1
 77 376 l 1
 103 359 137 350 171 350 c 0
 249 350 291 402 284 495 c 1
 268 457 228 431 170 431 c 0
 87 431 33 483 33 564 c 0
 33 650 94 703 187 703 c 0
 298 703 365 627 365 500 c 0
 365 369 291 283 176 283 c 0
188 494 m 0
 242 494 272 525 272 565 c 0
 272 599 248 634 191 634 c 0
 142 634 112 608 112 563 c 0
 112 519 140 494 188 494 c 0
EndSplineSet
Substitution2: "Single Substitution lookup 14 subtable" nine.dnom
Substitution2: "'aalt' Access All Alternates lookup 0 subtable" nine.dnom
EndChar

StartChar: onesuperior
Encoding: 185 185 273
Width: 262
Flags: HW
LayerCount: 2
Fore
SplineSet
99 287 m 1
 99 621 l 5
 16 601 l 5
 16 680 l 1
 183 720 l 1
 183 287 l 1
 99 287 l 1
EndSplineSet
EndChar

StartChar: twosuperior
Encoding: 178 178 274
Width: 383
Flags: HW
LayerCount: 2
Fore
SplineSet
191 703 m 0
 273 703 330 662 330 598 c 0
 330 555 298 508 250 462 c 2
 142 353 l 1
 348 353 l 1
 348 287 l 1
 37 287 l 1
 37 343 l 1
 194 504 l 2
 223 532 243 564 243 586 c 0
 243 616 219 633 178 633 c 0
 142 633 98 613 61 581 c 1
 28 643 l 1
 77 680 133 703 191 703 c 0
EndSplineSet
EndChar

StartChar: threesuperior
Encoding: 179 179 275
Width: 355
Flags: HW
LayerCount: 2
Fore
SplineSet
181 529 m 1
 203 527 l 2
 272 520 320 480 320 415 c 0
 320 338 258 283 161 283 c 0
 106 283 48 302 11 329 c 1
 46 395 l 1
 77 364 115 347 155 347 c 0
 207 347 238 373 238 414 c 0
 238 455 207 476 154 476 c 2
 92 476 l 1
 92 522 l 1
 204 636 l 1
 31 636 l 1
 31 698 l 1
 300 698 l 1
 300 649 l 1
 181 529 l 1
EndSplineSet
EndChar

StartChar: asterisk
Encoding: 42 42 276
Width: 348
Flags: HW
LayerCount: 2
Fore
SplineSet
203 511 m 1
 204 408 l 1
 144 408 l 1
 145 511 l 1
 56 459 l 1
 25 514 l 1
 115 565 l 1
 25 614 l 1
 56 671 l 1
 145 618 l 1
 144 721 l 1
 204 721 l 1
 203 618 l 1
 292 670 l 1
 322 614 l 1
 232 565 l 1
 322 514 l 1
 292 458 l 1
 203 511 l 1
EndSplineSet
EndChar

StartChar: backslash
Encoding: 92 92 277
Width: 545
Flags: HW
LayerCount: 2
Fore
SplineSet
228 816 m 1
 545 -117 l 1
 447 -117 l 1
 130 816 l 1
 228 816 l 1
EndSplineSet
EndChar

StartChar: bullet
Encoding: 8226 8226 278
Width: 281
Flags: HW
LayerCount: 2
Fore
SplineSet
140 366 m 0
 195 366 235 325 235 268 c 0
 235 211 195 168 140 168 c 0
 86 168 46 211 46 268 c 0
 46 325 86 366 140 366 c 0
EndSplineSet
EndChar

StartChar: colon
Encoding: 58 58 279
Width: 212
Flags: HW
LayerCount: 2
Fore
SplineSet
40 351 m 4
 40 389 71 420 109 420 c 4
 147 420 178 389 178 351 c 4
 178 313 147 282 109 282 c 4
 71 282 40 313 40 351 c 4
40 60 m 0
 40 98 71 129 109 129 c 0
 147 129 178 98 178 60 c 0
 178 22 147 -9 109 -9 c 0
 71 -9 40 22 40 60 c 0
EndSplineSet
EndChar

StartChar: comma
Encoding: 44 44 280
Width: 214
Flags: HW
HStem: -82 211<66.0686 87.7998>
VStem: 32.7998 138<10.625 109.908>
LayerCount: 2
Fore
SplineSet
40 60 m 4
 40 98 71 129 109 129 c 4
 147 129 178 98 178 60 c 4
 178 45.9783334123 174 33 167 22 c 6
 95 -82 l 5
 36 -82 l 5
 72.4737796288 1.50575862382 l 5
 52.9961388412 13.7261358229 40 35.3957619132 40 60 c 4
EndSplineSet
EndChar

StartChar: ellipsis
Encoding: 8230 8230 281
Width: 608
Flags: HW
LayerCount: 2
Fore
SplineSet
106 118 m 0
 140 118 166 92 166 55 c 0
 166 18 140 -9 106 -9 c 0
 72 -9 46 18 46 55 c 0
 46 92 72 118 106 118 c 0
304 118 m 0
 338 118 364 92 364 55 c 0
 364 18 338 -9 304 -9 c 0
 270 -9 244 18 244 55 c 0
 244 92 270 118 304 118 c 0
502 118 m 0
 536 118 562 92 562 55 c 0
 562 18 536 -9 502 -9 c 0
 468 -9 442 18 442 55 c 0
 442 92 468 118 502 118 c 0
EndSplineSet
EndChar

StartChar: exclam
Encoding: 33 33 282
Width: 193
Flags: HW
LayerCount: 2
Fore
SplineSet
50 60 m 0x80
 50 98 81 129 119 129 c 0
 157 129 188 98 188 60 c 0
 188 22 157 -9 119 -9 c 0
 81 -9 50 22 50 60 c 0x80
173 519 m 1xa0
 155 223 l 1
 82 223 l 1
 64 519 l 1
 64 691 l 1
 173 691 l 1
 173 519 l 1xa0
EndSplineSet
EndChar

StartChar: exclamdown
Encoding: 161 161 283
Width: 209
Flags: HW
LayerCount: 2
Fore
SplineSet
117 408 m 0xc0
 81 408 54 435 54 473 c 0
 54 512 81 540 117 540 c 0
 153 540 180 512 180 473 c 0
 180 435 153 408 117 408 c 0xc0
63 13 m 1xa0
 81 308 l 1
 154 308 l 1
 172 13 l 1
 172 -160 l 1
 63 -160 l 1
 63 13 l 1xa0
EndSplineSet
EndChar

StartChar: numbersign
Encoding: 35 35 284
Width: 725
Flags: HW
LayerCount: 2
Fore
SplineSet
546 435 m 1
 524 259 l 1
 664 259 l 1
 656 173 l 1
 514 173 l 1
 492 0 l 1
 408 0 l 1
 429 173 l 1
 252 173 l 1
 230 0 l 1
 146 0 l 1
 167 173 l 1
 27 173 l 1
 35 259 l 1
 178 259 l 1
 199 435 l 1
 60 435 l 1
 68 521 l 1
 210 521 l 1
 232 700 l 1
 317 700 l 1
 295 521 l 1
 472 521 l 1
 494 700 l 1
 579 700 l 1
 557 521 l 1
 696 521 l 1
 689 435 l 1
 546 435 l 1
461 435 m 1
 284 435 l 1
 262 259 l 1
 440 259 l 1
 461 435 l 1
EndSplineSet
EndChar

StartChar: period
Encoding: 46 46 285
Width: 218
Flags: HW
LayerCount: 2
Fore
SplineSet
40 60 m 4xe0
 40 98 71 129 109 129 c 4
 147 129 178 98 178 60 c 4
 178 22 147 -9 109 -9 c 4
 71 -9 40 22 40 60 c 4xe0
EndSplineSet
EndChar

StartChar: periodcentered
Encoding: 183 183 286
Width: 212
Flags: HW
HStem: 224 126<51.1403 142.459>
VStem: 36.7998 120<237.997 336.326>
LayerCount: 2
Fore
SplineSet
106 350 m 0
 140 350 166 324 166 287 c 0
 166 251 140 224 106 224 c 0
 72 224 46 251 46 287 c 0
 46 324 72 350 106 350 c 0
EndSplineSet
EndChar

StartChar: question
Encoding: 63 63 287
Width: 460
Flags: HW
LayerCount: 2
Fore
SplineSet
158 60 m 4xe4
 158 98 189 129 227 129 c 4
 265 129 296 98 296 60 c 4
 296 22 265 -9 227 -9 c 4
 189 -9 158 22 158 60 c 4xe4
181 218 m 5
 171 390 l 5
 284 390 l 5
 274 218 l 5
 181 218 l 5
130 495 m 5
 30 495 l 5
 30 626 106 695 230 695 c 4
 350 695 430 607 430 508 c 4
 430 376 344 308 244 308 c 5
 212 390 l 5
 292 390 323 445 323 511 c 4
 323 559 287 597 225 597 c 4
 160 597 133 563 130 495 c 5
EndSplineSet
EndChar

StartChar: questiondown
Encoding: 191 191 288
Width: 443
Flags: HW
LayerCount: 2
Fore
SplineSet
303 471 m 0xe4
 303 433 272 402 234 402 c 0
 196 402 165 433 165 471 c 0
 165 509 196 540 234 540 c 0
 272 540 303 509 303 471 c 0xe4
280 313 m 1
 290 141 l 1
 177 141 l 1
 187 313 l 1
 280 313 l 1
331 36 m 1
 431 36 l 1
 431 -95 355 -164 231 -164 c 0
 111 -164 31 -76 31 23 c 0
 31 155 117 223 217 223 c 1
 249 141 l 1
 169 141 138 86 138 20 c 0
 138 -28 174 -66 236 -66 c 0
 301 -66 328 -32 331 36 c 1
EndSplineSet
EndChar

StartChar: quotedbl
Encoding: 34 34 289
Width: 380
Flags: HW
LayerCount: 2
Fore
SplineSet
128 474 m 5
 80 474 l 5
 68.50390625 547.033203125 45 616.215820312 45 691 c 0
 45 724 71 750 104 750 c 0
 137 750 163 724 163 691 c 0
 163 616.200195312 139.494140625 547.020507812 128 474 c 5
298 474 m 5
 250 474 l 5
 238.50390625 547.033203125 215 616.215820312 215 691 c 0
 215 724 241 750 274 750 c 0
 307 750 333 724 333 691 c 0
 333 616.200195312 309.494140625 547.020507812 298 474 c 5
EndSplineSet
EndChar

StartChar: quotesingle
Encoding: 39 39 290
Width: 208
Flags: HW
LayerCount: 2
Fore
SplineSet
40 680 m 0
 40 718 71 749 109 749 c 0
 147 749 178 718 178 680 c 0
 178 665.978515625 174 653 167 642 c 2
 95 538 l 1
 36 538 l 1
 72.4736328125 621.505859375 l 1
 52.99609375 633.7265625 40 655.395507812 40 680 c 0
EndSplineSet
EndChar

StartChar: semicolon
Encoding: 59 59 291
Width: 216
Flags: HW
LayerCount: 2
Fore
SplineSet
40 351 m 0
 40 389 71 420 109 420 c 0
 147 420 178 389 178 351 c 0
 178 313 147 282 109 282 c 0
 71 282 40 313 40 351 c 0
109 121 m 0
 141 121 170 97 170 57 c 0
 170 37 163 20 152 4 c 2
 95 -82 l 1
 36 -82 l 1
 74 5 l 1
 56 17 47 36 47 57 c 0
 47 94 73 121 109 121 c 0
EndSplineSet
EndChar

StartChar: slash
Encoding: 47 47 292
Width: 331
Flags: HW
LayerCount: 2
Fore
SplineSet
77 -117 m 1
 -21 -117 l 1
 296 816 l 1
 394 816 l 1
 77 -117 l 1
EndSplineSet
Substitution2: "'frac' Diagonal Fractions lookup 8 subtable" fraction
Substitution2: "'aalt' Access All Alternates lookup 0 subtable" fraction
EndChar

StartChar: underscore
Encoding: 95 95 293
Width: 566
Flags: HW
LayerCount: 2
Fore
SplineSet
566 -204 m 1
 0 -204 l 1
 0 -134 l 1
 566 -134 l 1
 566 -204 l 1
EndSplineSet
EndChar

StartChar: braceleft
Encoding: 123 123 294
Width: 329
Flags: HW
LayerCount: 2
Fore
SplineSet
214 580 m 2
 214 416 l 2
 214 352 195 321 144 308 c 1
 195 296 214 265 214 201 c 2
 214 37 l 2
 214 -13 238 -34 309 -34 c 1
 309 -126 l 1
 266 -126 l 2
 154 -126 110 -91 110 2 c 2
 110 208 l 2
 110 246 97 261 67 261 c 2
 36 261 l 1
 36 356 l 1
 67 356 l 2
 97 356 110 371 110 409 c 2
 110 616 l 2
 110 708 154 743 266 743 c 2
 309 743 l 1
 309 651 l 1
 238 651 214 630 214 580 c 2
EndSplineSet
EndChar

StartChar: braceright
Encoding: 125 125 295
Width: 402
Flags: HW
LayerCount: 2
Fore
SplineSet
402 356 m 1
 402 261 l 1
 371 261 l 2
 341 261 328 246 328 208 c 2
 328 2 l 2
 328 -91 284 -126 172 -126 c 2
 129 -126 l 1
 129 -34 l 1
 200 -34 224 -13 224 37 c 2
 224 201 l 2
 224 265 243 296 294 309 c 1
 243 321 224 352 224 416 c 2
 224 580 l 2
 224 630 200 651 129 651 c 1
 129 743 l 1
 172 743 l 2
 284 743 328 708 328 616 c 2
 328 409 l 2
 328 371 341 356 371 356 c 2
 402 356 l 1
EndSplineSet
EndChar

StartChar: bracketleft
Encoding: 91 91 296
Width: 345
Flags: HW
LayerCount: 2
Fore
SplineSet
319 650 m 1
 195 650 l 1
 195 -32 l 1
 319 -32 l 1
 319 -124 l 1
 92 -124 l 1
 92 742 l 1
 319 742 l 1
 319 650 l 1
EndSplineSet
EndChar

StartChar: bracketright
Encoding: 93 93 297
Width: 473
Flags: HW
LayerCount: 2
Fore
SplineSet
381 742 m 1
 381 -124 l 1
 154 -124 l 1
 154 -32 l 1
 278 -32 l 1
 278 650 l 1
 154 650 l 1
 154 742 l 1
 381 742 l 1
EndSplineSet
EndChar

StartChar: parenleft
Encoding: 40 40 298
Width: 319
Flags: HW
LayerCount: 2
Fore
SplineSet
199 742 m 1
 303 742 l 1
 230 628 185 475 185 309 c 0
 185 143 230 -10 303 -124 c 1
 199 -124 l 1
 120 -10 77 143 77 309 c 0
 77 475 120 628 199 742 c 1
EndSplineSet
EndChar

StartChar: parenright
Encoding: 41 41 299
Width: 319
Flags: HW
LayerCount: 2
Fore
SplineSet
16 742 m 1
 120 742 l 1
 199 628 242 475 242 309 c 0
 242 143 199 -10 120 -124 c 1
 16 -124 l 1
 89 -10 134 143 134 309 c 0
 134 475 89 628 16 742 c 1
EndSplineSet
EndChar

StartChar: emdash
Encoding: 8212 8212 300
Width: 691
Flags: HW
LayerCount: 2
Fore
SplineSet
691 225 m 1
 0 225 l 1
 0 304 l 1
 691 304 l 1
 691 225 l 1
EndSplineSet
EndChar

StartChar: endash
Encoding: 8211 8211 301
Width: 405
Flags: HW
LayerCount: 2
Fore
SplineSet
405 225 m 1
 0 225 l 1
 0 304 l 1
 405 304 l 1
 405 225 l 1
EndSplineSet
EndChar

StartChar: hyphen
Encoding: 45 45 302
Width: 368
Flags: HW
LayerCount: 2
Fore
SplineSet
307 265 m 1
 61 265 l 1
 61 344 l 1
 307 344 l 1
 307 265 l 1
EndSplineSet
EndChar

StartChar: softhyphen
Encoding: 173 173 303
Width: 368
Flags: HW
LayerCount: 2
Fore
SplineSet
307 265 m 1
 61 265 l 1
 61 344 l 1
 307 344 l 1
 307 265 l 1
EndSplineSet
EndChar

StartChar: guillemotleft
Encoding: 171 171 304
Width: 456
Flags: HW
LayerCount: 2
Fore
SplineSet
128 260 m 1
 235 86 l 1
 139 86 l 1
 23 260 l 1
 139 434 l 1
 235 434 l 1
 128 260 l 1
308 260 m 1
 415 86 l 1
 319 86 l 1
 203 260 l 1
 319 434 l 1
 415 434 l 1
 308 260 l 1
EndSplineSet
EndChar

StartChar: guillemotright
Encoding: 187 187 305
Width: 468
Flags: HW
LayerCount: 2
Fore
SplineSet
183 261 m 1
 76 435 l 1
 172 435 l 1
 288 261 l 1
 172 87 l 1
 76 87 l 1
 183 261 l 1
363 261 m 1
 256 435 l 1
 352 435 l 1
 468 261 l 1
 352 87 l 1
 256 87 l 1
 363 261 l 1
EndSplineSet
EndChar

StartChar: guilsinglleft
Encoding: 8249 8249 306
Width: 276
Flags: HW
LayerCount: 2
Fore
SplineSet
128 260 m 1
 235 86 l 1
 139 86 l 1
 23 260 l 1
 139 434 l 1
 235 434 l 1
 128 260 l 1
EndSplineSet
EndChar

StartChar: guilsinglright
Encoding: 8250 8250 307
Width: 288
Flags: HW
LayerCount: 2
Fore
SplineSet
183 261 m 1
 76 435 l 1
 172 435 l 1
 288 261 l 1
 172 86 l 1
 76 86 l 1
 183 261 l 1
EndSplineSet
EndChar

StartChar: quotedblbase
Encoding: 8222 8222 308
Width: 363
Flags: HW
LayerCount: 2
Fore
SplineSet
109 121 m 0
 141 121 170 97 170 57 c 0
 170 37 163 20 152 4 c 2
 95 -82 l 1
 36 -82 l 1
 74 5 l 1
 56 17 47 36 47 57 c 0
 47 94 73 121 109 121 c 0
258 121 m 0xe0
 290 121 319 97 319 57 c 0
 319 37 312 20 301 4 c 2
 244 -82 l 1
 185 -82 l 1
 223 5 l 1
 205 17 196 36 196 57 c 0
 196 94 222 121 258 121 c 0xe0
EndSplineSet
EndChar

StartChar: quotedblleft
Encoding: 8220 8220 309
Width: 296
Flags: HW
LayerCount: 2
Fore
SplineSet
170 706 m 1x30
 132 619 l 1x50
 150 607 159 588 159 567 c 0
 159 530 133 503 97 503 c 0
 65 503 36 527 36 567 c 0x90
 36 587 43 604 54 620 c 2
 111 706 l 1
 170 706 l 1x30
319 706 m 1
 281 619 l 1x58
 299 607 308 588 308 567 c 0
 308 530 282 503 246 503 c 0
 214 503 185 527 185 567 c 0x98
 185 587 192 604 203 620 c 2
 260 706 l 1x38
 319 706 l 1
EndSplineSet
EndChar

StartChar: quotedblright
Encoding: 8221 8221 310
Width: 333
Flags: HW
LayerCount: 2
Fore
SplineSet
109 701 m 0x60
 141 701 170 677 170 637 c 0
 170 617 163 600 152 584 c 2
 95 498 l 1
 36 498 l 1
 74 585 l 1xa0
 56 597 47 616 47 637 c 0
 47 674 73 701 109 701 c 0x60
258 701 m 0x70
 290 701 319 677 319 637 c 0
 319 617 312 600 301 584 c 2
 244 498 l 1
 185 498 l 1
 223 585 l 1xb0
 205 597 196 616 196 637 c 0
 196 674 222 701 258 701 c 0x70
EndSplineSet
EndChar

StartChar: quoteleft
Encoding: 8216 8216 311
Width: 214
Flags: HW
LayerCount: 2
Fore
SplineSet
170 706 m 1x60
 132 619 l 1
 150 607 159 588 159 567 c 0xa0
 159 529 133 503 97 503 c 0
 65 503 36 526 36 567 c 0
 36 587 43 603 54 619 c 2
 111 706 l 1
 170 706 l 1x60
EndSplineSet
EndChar

StartChar: quoteright
Encoding: 8217 8217 312
Width: 214
Flags: HW
LayerCount: 2
Fore
SplineSet
109 700 m 0
 141 700 170 677 170 636 c 0
 170 616 163 600 152 584 c 2
 95 498 l 1
 36 498 l 1
 74 584 l 1
 56 596 47 615 47 636 c 0
 47 674 73 700 109 700 c 0
EndSplineSet
EndChar

StartChar: quotesinglbase
Encoding: 8218 8218 313
Width: 214
Flags: HW
LayerCount: 2
Fore
SplineSet
109 121 m 0
 141 121 170 97 170 57 c 0
 170 37 163 20 152 4 c 2
 95 -82 l 1
 36 -82 l 1
 74 5 l 1
 56 17 47 36 47 57 c 0
 47 94 73 121 109 121 c 0
EndSplineSet
EndChar

StartChar: florin
Encoding: 402 402 316
Width: 372
Flags: HW
LayerCount: 2
Fore
SplineSet
334 655 m 0
 285 656 248 622 241 567 c 2
 228 464 l 1
 368 464 l 1
 359 384 l 1
 219 384 l 1
 168 -30 l 2
 155 -134 92 -200 -10 -199 c 0
 -48 -198 -92 -183 -119 -161 c 1
 -87 -76 l 1
 -69 -92 -43 -102 -22 -103 c 0
 25 -104 49 -68 56 -13 c 2
 105 384 l 1
 36 384 l 1
 45 464 l 1
 114 464 l 1
 129 583 l 2
 142 687 216 753 318 752 c 0
 364 751 414 736 446 714 c 1
 405 629 l 1
 385 645 357 655 334 655 c 0
EndSplineSet
EndChar

StartChar: Euro
Encoding: 8364 8364 317
Width: 790
Flags: HW
LayerCount: 2
Fore
SplineSet
693 188 m 1
 762 110 l 1
 692 40 591 -5 491 -5 c 0
 328 -5 194 93 146 235 c 1
 37 235 l 1
 37 299 l 1
 131 299 l 1
 128 316 127 333 127 351 c 0
 127 369 128 387 131 404 c 1
 37 404 l 1
 37 468 l 1
 147 468 l 1
 196 607 331 703 496 703 c 0
 595 703 694 662 761 595 c 1
 693 509 l 1
 641 564 569 598 497 598 c 0
 401 598 318 546 276 468 c 1
 527 468 l 1
 527 404 l 1
 252 404 l 1
 249 387 247 370 247 352 c 0
 247 334 249 316 253 299 c 1
 527 299 l 1
 527 235 l 1
 276 235 l 1
 318 157 401 105 497 105 c 0
 567 105 639 137 693 188 c 1
EndSplineSet
EndChar

StartChar: cent
Encoding: 162 162 318
Width: 564
Flags: HW
LayerCount: 2
Fore
SplineSet
465 159 m 1x5c
 529 95 l 1
 488 41 426 7 346 -2 c 1x9c
 346 -142 l 1
 259 -142 l 1
 259 -1 l 1
 125 17 35 120 35 265 c 0
 35 411 125 514 259 533 c 1x6c
 259 684 l 1
 346 684 l 1
 346 534 l 1
 422 526 482 496 523 449 c 1
 460 375 l 1
 431 405 392 426 346 433 c 1
 346 98 l 1
 396 104 436 125 465 159 c 1x5c
150 265 m 0
 150 183 193 122 259 102 c 1
 259 428 l 1
 193 408 150 347 150 265 c 0
EndSplineSet
EndChar

StartChar: currency
Encoding: 164 164 319
Width: 711
Flags: HW
LayerCount: 2
Fore
SplineSet
625 319 m 0xdc
 625 262 606 210 574 167 c 1
 676 65 l 1
 611 -4 l 1
 505 101 l 1
 462 73 410 57 355 57 c 0
 300 57 249 73 206 101 c 1
 100 -4 l 1
 35 65 l 1
 137 167 l 1
 106 210 87 263 87 319 c 0
 87 375 105 427 135 470 c 1
 35 570 l 1
 100 639 l 1
 203 536 l 1
 247 566 299 583 355 583 c 0xec
 412 583 464 566 508 537 c 1
 611 639 l 1
 676 570 l 1
 576 470 l 1
 607 427 625 375 625 319 c 0xdc
355 155 m 0
 454 155 534 229 534 319 c 0
 534 411 454 486 355 486 c 0xec
 258 486 179 411 179 319 c 0
 179 229 258 155 355 155 c 0
EndSplineSet
EndChar

StartChar: dollar
Encoding: 36 36 320
Width: 657
Flags: HW
LayerCount: 2
Fore
SplineSet
343 705 m 0x0e
 434 705 523 676 588 633 c 1
 539 529 l 1
 463 575 387 594 334 594 c 0
 265 594 206 556 206 509 c 4
 206 445.00390625 286.131835938 424.122070312 363 400.715820312 c 0
 469.907226562 368.163085938 597.58203125 344.595703125 597 198 c 0
 597 73 487 -9 333 -9 c 0
 223 -9 119 41 47 107 c 1
 110 212 l 1
 182 149 260 106 335 106 c 0
 417 106 476 138 476 192 c 0
 476 254.358398438 397.604492188 271.747070312 319 294.731445312 c 0
 212.814453125 325.78125 88 366.91796875 88 510 c 0
 88 630 191 705 343 705 c 0x0e
295 -140 m 1
 295 835 l 1
 383 835 l 1
 383 -140 l 1
 295 -140 l 1
EndSplineSet
EndChar

StartChar: sterling
Encoding: 163 163 321
Width: 547
Flags: HW
LayerCount: 2
Fore
SplineSet
238 96 m 1
 518 96 l 1
 518 0 l 1
 37 0 l 1
 37 96 l 1
 120 96 l 1
 120 298 l 1
 37 298 l 1
 37 382 l 1
 120 382 l 1
 120 483 l 2
 120 625 197 705 333 705 c 0
 409 705 480 673 531 615 c 1
 484 523 l 1
 442 573 394 599 345 599 c 0
 276 599 238 559 238 480 c 2
 238 382 l 1
 414 382 l 1
 414 298 l 1
 238 298 l 1
 238 96 l 1
EndSplineSet
EndChar

StartChar: yen
Encoding: 165 165 322
Width: 628
Flags: HW
LayerCount: 2
Fore
SplineSet
428 322 m 1x78
 575 322 l 1
 575 272 l 1
 401 272 l 1
 380 234 l 1
 380 189 l 1
 575 189 l 1
 575 139 l 1
 380 139 l 1x78
 380 0 l 1
 262 0 l 1xb8
 262 139 l 1
 75 139 l 1
 75 189 l 1
 262 189 l 1
 262 229 l 1
 238 272 l 1
 75 272 l 1
 75 322 l 1
 211 322 l 1
 1 700 l 1
 120 700 l 1
 320 359 l 1
 516 700 l 1
 636 700 l 1
 428 322 l 1x78
EndSplineSet
EndChar

StartChar: approxequal
Encoding: 8776 8776 323
Width: 498
Flags: HW
LayerCount: 2
Fore
SplineSet
163 511 m 0x9c
 227 511 274 454 315 454 c 0
 340 454 354 472 354 505 c 1
 433 505 l 1
 433 412 400 365 336 365 c 0xac
 268 365 226 422 185 422 c 0
 159 422 146 404 146 371 c 1
 66 371 l 1
 66 464 99 511 163 511 c 0x9c
163 291 m 0x6c
 227 291 274 234 315 234 c 0
 340 234 354 251 354 284 c 1
 433 284 l 1
 433 191 400 144 336 144 c 0xac
 268 144 226 201 185 201 c 0
 159 201 146 184 146 151 c 1
 66 151 l 1
 66 244 99 291 163 291 c 0x6c
EndSplineSet
EndChar

StartChar: asciitilde
Encoding: 126 126 324
Width: 498
Flags: HW
LayerCount: 2
Fore
SplineSet
163 395 m 0x70
 227 395 274 338 315 338 c 0
 340 338 354 355 354 388 c 1
 433 388 l 1
 433 295 400 248 336 248 c 0xb0
 268 248 226 305 185 305 c 0
 159 305 146 288 146 255 c 1
 66 255 l 1
 66 348 99 395 163 395 c 0x70
EndSplineSet
EndChar

StartChar: bulletoperator
Encoding: 8729 8729 325
Width: 281
Flags: HW
LayerCount: 2
Fore
SplineSet
140 366 m 0
 195 366 235 325 235 268 c 0
 235 211 195 168 140 168 c 0
 86 168 46 211 46 268 c 0
 46 325 86 366 140 366 c 0
EndSplineSet
EndChar

StartChar: divide
Encoding: 247 247 326
Width: 498
Flags: HW
LayerCount: 2
Fore
SplineSet
243 572 m 0
 278 572 304 545 304 509 c 0
 304 472 278 445 243 445 c 0
 208 445 183 472 183 509 c 0
 183 545 208 572 243 572 c 0
463 285 m 1
 35 285 l 1
 35 364 l 1
 463 364 l 1
 463 285 l 1
243 217 m 0
 278 217 304 190 304 154 c 0
 304 117 278 90 243 90 c 0
 208 90 183 117 183 154 c 0
 183 190 208 217 243 217 c 0
EndSplineSet
EndChar

StartChar: divisionslash
Encoding: 8725 8725 327
Width: 331
Flags: HW
LayerCount: 2
Fore
SplineSet
77 -117 m 1
 -21 -117 l 1
 296 816 l 1
 394 816 l 1
 77 -117 l 1
EndSplineSet
EndChar

StartChar: equal
Encoding: 61 61 328
Width: 498
Flags: HW
LayerCount: 2
Fore
SplineSet
463 390 m 1
 35 390 l 1
 35 469 l 1
 463 469 l 1
 463 390 l 1
463 180 m 1
 35 180 l 1
 35 259 l 1
 463 259 l 1
 463 180 l 1
EndSplineSet
EndChar

StartChar: greater
Encoding: 62 62 329
Width: 498
Flags: HW
LayerCount: 2
Fore
SplineSet
35 183 m 1
 386 330 l 1
 35 478 l 1
 35 567 l 1
 463 381 l 1
 463 280 l 1
 35 94 l 1
 35 183 l 1
EndSplineSet
EndChar

StartChar: greaterequal
Encoding: 8805 8805 330
Width: 498
Flags: HW
LayerCount: 2
Fore
SplineSet
35 252 m 1
 386 397 l 1
 35 541 l 1
 35 628 l 1
 463 446 l 1
 463 347 l 1
 35 166 l 1
 35 252 l 1
463 20 m 1
 35 20 l 1
 35 100 l 1
 463 100 l 1
 463 20 l 1
EndSplineSet
EndChar

StartChar: infinity
Encoding: 8734 8734 331
Width: 875
Flags: HW
LayerCount: 2
Fore
SplineSet
647 503 m 0
 758 503 840 417 840 302 c 0
 840 186 758 100 647 100 c 0
 537 100 483 164 438 234 c 1
 394 164 340 100 228 100 c 0
 117 100 35 186 35 301 c 0
 35 417 117 503 228 503 c 0
 338 503 392 439 437 369 c 1
 481 439 535 503 647 503 c 0
647 185 m 0
 712 185 760 234 760 302 c 0
 760 370 712 419 647 419 c 0
 561 419 517 365 478 301 c 1
 518 238 562 185 647 185 c 0
228 184 m 0
 313 184 357 238 397 302 c 1
 357 365 313 418 228 418 c 0
 163 418 115 369 115 301 c 0
 115 233 163 184 228 184 c 0
EndSplineSet
EndChar

StartChar: integral
Encoding: 8747 8747 332
Width: 342
Flags: HW
LayerCount: 2
Fore
SplineSet
346 823 m 1x68
 332 743 l 1
 314 751 299 754 282 754 c 0
 227 754 206 722 206 634 c 0x70
 206 516 228 219 228 90 c 0
 228 -67 186 -128 77 -128 c 0xa8
 42 -128 18 -122 -8 -107 c 1x68
 7 -27 l 1
 29 -38 44 -43 64 -43 c 0
 120 -43 142 -8 142 82 c 0xa8
 142 211 119 504 119 624 c 0x70
 119 781 161 842 269 842 c 0
 295 842 317 836 346 823 c 1x68
EndSplineSet
EndChar

StartChar: less
Encoding: 60 60 333
Width: 498
Flags: HW
LayerCount: 2
Fore
SplineSet
463 473 m 1
 112 326 l 1
 463 178 l 1
 463 89 l 1
 35 275 l 1
 35 376 l 1
 463 562 l 1
 463 473 l 1
EndSplineSet
EndChar

StartChar: lessequal
Encoding: 8804 8804 334
Width: 498
Flags: HW
LayerCount: 2
Fore
SplineSet
463 536 m 1
 112 392 l 1
 463 248 l 1
 463 161 l 1
 35 342 l 1
 35 441 l 1
 463 623 l 1
 463 536 l 1
463 20 m 1
 35 20 l 1
 35 100 l 1
 463 100 l 1
 463 20 l 1
EndSplineSet
EndChar

StartChar: logicalnot
Encoding: 172 172 335
Width: 562
Flags: HW
LayerCount: 2
Fore
SplineSet
486 404 m 1
 486 145 l 1
 402 145 l 1
 402 325 l 1
 35 325 l 1
 35 404 l 1
 486 404 l 1
EndSplineSet
EndChar

StartChar: minus
Encoding: 8722 8722 336
Width: 498
Flags: HW
LayerCount: 2
Fore
SplineSet
463 285 m 1
 35 285 l 1
 35 364 l 1
 463 364 l 1
 463 285 l 1
EndSplineSet
EndChar

StartChar: multiply
Encoding: 215 215 337
Width: 498
Flags: HW
LayerCount: 2
Fore
SplineSet
304 325 m 1
 427 201 l 1
 374 145 l 1
 250 270 l 1
 125 145 l 1
 72 201 l 1
 195 325 l 1
 72 448 l 1
 125 504 l 1
 250 379 l 1
 374 504 l 1
 427 448 l 1
 304 325 l 1
EndSplineSet
EndChar

StartChar: notequal
Encoding: 8800 8800 338
Width: 498
Flags: HW
LayerCount: 2
Fore
SplineSet
308 390 m 1
 267 259 l 1
 463 259 l 1
 463 180 l 1
 242 180 l 1
 195 31 l 1
 107 31 l 1
 154 180 l 1
 35 180 l 1
 35 259 l 1
 179 259 l 1
 220 390 l 1
 35 390 l 1
 35 469 l 1
 245 469 l 1
 291 613 l 1
 379 613 l 1
 333 469 l 1
 463 469 l 1
 463 390 l 1
 308 390 l 1
EndSplineSet
EndChar

StartChar: partialdiff
Encoding: 8706 8706 339
Width: 615
Flags: HW
LayerCount: 2
Fore
SplineSet
270 705 m 0
 452 705 567 561 567 342 c 0
 567 123 460 -5 282 -5 c 0
 134 -5 36 85 36 229 c 0
 36 365 124 453 262 453 c 0
 360 453 427 405 452 332 c 1
 464 505 394 606 262 606 c 0
 205 606 148 587 102 552 c 1
 56 642 l 1
 116 680 198 705 270 705 c 0
283 359 m 0
 198 359 146 312 146 231 c 0
 146 146 203 97 288 97 c 0
 389 97 433 166 433 226 c 0
 433 300 378 359 283 359 c 0
EndSplineSet
EndChar

StartChar: percent
Encoding: 37 37 340
Width: 993
Flags: HW
LayerCount: 2
Fore
SplineSet
646 204 m 0x9f
 646 132 699 79 770 79 c 0
 841 79 894 132 894 204 c 0
 894 276 841 330 770 330 c 0
 699 330 646 276 646 204 c 0x9f
563 204 m 0
 563 322 650 410 770 410 c 0
 890 410 977 322 977 204 c 0
 977 86 890 -2 770 -2 c 0
 652 -2 563 86 563 204 c 0
99 493 m 0
 99 421 152 368 223 368 c 0
 294 368 347 421 347 493 c 0
 347 565 294 619 223 619 c 0
 152 619 99 565 99 493 c 0
16 493 m 0
 16 611 103 699 223 699 c 0
 343 699 430 611 430 493 c 0
 430 375 343 287 223 287 c 0
 105 287 16 375 16 493 c 0
175 0 m 1
 690 700 l 1
 810 700 l 5
 296 0 l 5
 175 0 l 1
EndSplineSet
EndChar

StartChar: perthousand
Encoding: 8240 8240 341
Width: 1420
Flags: HW
LayerCount: 2
Fore
SplineSet
223 702 m 0xbfc0
 338 702 408 624 408 494 c 0
 408 363 338 284 223 284 c 0x4c
 108 284 38 363 38 494 c 0
 38 624 108 702 223 702 c 0xbfc0
170 0 m 1
 685 700 l 1
 795 700 l 1
 281 0 l 1
 170 0 l 1
223 634 m 0
 154 634 115 583 115 494 c 0
 115 404 154 352 223 352 c 0x4c
 292 352 332 404 332 494 c 0
 332 583 292 634 223 634 c 0
750 415 m 0
 865 415 935 337 935 207 c 0
 935 76 865 -2 750 -2 c 0
 635 -2 565 76 565 207 c 0
 565 337 635 415 750 415 c 0
1196 415 m 0
 1311 415 1381 337 1381 207 c 0
 1381 76 1311 -2 1196 -2 c 0
 1081 -2 1011 76 1011 207 c 0
 1011 337 1081 415 1196 415 c 0
750 348 m 0
 681 348 642 296 642 207 c 0
 642 117 681 66 750 66 c 0
 819 66 859 117 859 207 c 0
 859 296 819 348 750 348 c 0
1196 348 m 0
 1127 348 1088 296 1088 207 c 0
 1088 117 1127 66 1196 66 c 0
 1265 66 1305 117 1305 207 c 0
 1305 296 1265 348 1196 348 c 0
EndSplineSet
EndChar

StartChar: plus
Encoding: 43 43 342
Width: 498
Flags: HW
LayerCount: 2
Fore
SplineSet
463 285 m 1
 287 285 l 1
 287 110 l 1
 212 110 l 1
 212 285 l 1
 35 285 l 1
 35 364 l 1
 212 364 l 1
 212 539 l 1
 287 539 l 1
 287 364 l 1
 463 364 l 1
 463 285 l 1
EndSplineSet
EndChar

StartChar: plusminus
Encoding: 177 177 343
Width: 498
Flags: HW
LayerCount: 2
Fore
SplineSet
463 430 m 1
 463 352 l 1
 287 352 l 1
 287 181 l 1
 212 181 l 1
 212 352 l 1
 35 352 l 1
 35 430 l 1
 212 430 l 1
 212 601 l 1
 287 601 l 1
 287 430 l 1
 463 430 l 1
35 100 m 1
 463 100 l 1
 463 20 l 1
 35 20 l 1
 35 100 l 1
EndSplineSet
EndChar

StartChar: product
Encoding: 8719 8719 344
Width: 750
Flags: HW
LayerCount: 2
Fore
SplineSet
658 -194 m 1
 543 -194 l 1
 543 644 l 1
 207 644 l 1
 207 -194 l 1
 92 -194 l 1
 92 742 l 1
 658 742 l 1
 658 -194 l 1
EndSplineSet
EndChar

StartChar: radical
Encoding: 8730 8730 345
Width: 689
Flags: HW
LayerCount: 2
Fore
SplineSet
213 399 m 1
 347 -29 l 1
 576 750 l 1
 686 750 l 1
 408 -154 l 1
 285 -154 l 1
 134 302 l 1
 11 302 l 1
 11 399 l 1
 213 399 l 1
EndSplineSet
EndChar

StartChar: summation
Encoding: 8721 8721 346
Width: 611
Flags: HW
LayerCount: 2
Fore
SplineSet
598 637 m 1
 176 637 l 1
 453 307 l 1
 174 -32 l 1
 608 -32 l 1
 608 -138 l 1
 32 -138 l 1
 32 -47 l 1
 326 306 l 1
 40 651 l 1
 40 743 l 1
 598 743 l 1
 598 637 l 1
EndSplineSet
EndChar

StartChar: lozenge
Encoding: 9674 9674 347
Width: 536
Flags: HW
LayerCount: 2
Fore
SplineSet
501 330 m 1
 267 -18 l 1
 35 330 l 1
 268 676 l 1
 501 330 l 1
141 330 m 1
 267 145 l 1
 395 330 l 1
 268 515 l 1
 141 330 l 1
EndSplineSet
EndChar

StartChar: ampersand
Encoding: 38 38 348
Width: 663
Flags: HW
LayerCount: 2
Fore
SplineSet
597 -19 m 1xe8
 488 88 l 1
 426 29 354 -5 277 -5 c 0
 152 -5 57 78 57 191 c 0xe8
 57 290 119 348 188 395 c 1
 142 457 131 507 131 557 c 0xd8
 131 650 214 730 323 730 c 0
 428 730 497 659 497 573 c 0
 497 477 415 420 328 364 c 1
 366 321 407 284 467 225 c 1
 491 261 512 303 530 351 c 1
 615 285 l 1
 594 235 580 200 552 162 c 1
 666 51 l 1
 597 -19 l 1xe8
229 553 m 0xd8
 229 516 239 484 274 436 c 1
 339 481 399 518 399 566 c 0
 399 607 363 637 321 637 c 0
 272 637 229 589 229 553 c 0xd8
281 92 m 0
 332 92 361 107 405 150 c 1
 335 220 289 267 245 317 c 1
 197 279 161 250 161 198 c 0xe8
 161 128 209 92 281 92 c 0
EndSplineSet
EndChar

StartChar: asciicircum
Encoding: 94 94 349
Width: 538
Flags: HW
LayerCount: 2
Fore
SplineSet
416 352 m 5
 269 675 l 5
 121 352 l 5
 32 352 l 5
 218 746 l 5
 319 746 l 5
 505 352 l 5
 416 352 l 5
EndSplineSet
EndChar

StartChar: at
Encoding: 64 64 350
Width: 974
Flags: HW
LayerCount: 2
Fore
SplineSet
493 702 m 0xdf80
 750 702 940 521 940 272 c 0
 940 121 861 23 749 23 c 0
 688 23 644 48 633 104 c 1xdf80
 631 124 l 1
 590 64 528 35 459 35 c 0xbf80
 337 35 228 129 228 269 c 0
 228 401 315 508 448 508 c 0
 536 508 596 454 606 433 c 1
 606 498 l 1
 714 498 l 1
 714 149 l 2
 714 111 733 95 760 95 c 0
 809 95 854 166 854 269 c 0
 854 468 715 621 493 621 c 0
 285 621 120 465 120 267 c 0
 120 72 276 -70 480 -70 c 0
 539 -70 617 -51 673 -11 c 1
 714 -84 l 1
 655 -126 556 -153 480 -153 c 0
 226 -153 34 26 34 267 c 0
 34 513 235 702 493 702 c 0xdf80
469 408 m 0
 395 408 345 348 345 274 c 0
 345 197 395 133 471 133 c 0xbf80
 550 133 599 195 599 273 c 0
 599 348 548 408 469 408 c 0
EndSplineSet
EndChar

StartChar: bar
Encoding: 124 124 351
Width: 269
Flags: HW
LayerCount: 2
Fore
SplineSet
178 -116 m 1
 91 -116 l 1
 91 810 l 1
 178 810 l 1
 178 -116 l 1
EndSplineSet
EndChar

StartChar: brokenbar
Encoding: 166 166 352
Width: 269
Flags: HW
LayerCount: 2
Fore
SplineSet
178 464 m 1
 91 464 l 1
 91 810 l 1
 178 810 l 1
 178 464 l 1
178 -116 m 1
 91 -116 l 1
 91 230 l 1
 178 230 l 1
 178 -116 l 1
EndSplineSet
EndChar

StartChar: copyright
Encoding: 169 169 353
Width: 745
Flags: HW
LayerCount: 2
Fore
SplineSet
373 689 m 0
 563 689 711 536 711 350 c 0
 711 165 562 9 371 9 c 0
 181 9 34 163 34 348 c 0
 34 533 182 689 373 689 c 0
373 629 m 0
 213 629 91 501 91 348 c 0
 91 195 212 69 371 69 c 0
 531 69 654 197 654 350 c 0
 654 503 532 629 373 629 c 0
378 520 m 0
 426 520 475 500 509 467 c 1
 474 425 l 1
 448 451 414 467 379 467 c 0
 311 467 258 415 258 350 c 0
 258 284 311 231 379 231 c 0
 412 231 448 246 474 271 c 1
 509 232 l 1
 474 198 425 176 376 176 c 0
 276 176 198 251 198 349 c 0
 198 446 277 520 378 520 c 0
EndSplineSet
EndChar

StartChar: dagger
Encoding: 8224 8224 354
Width: 536
Flags: HW
LayerCount: 2
Fore
SplineSet
321 486 m 1
 521 486 l 1
 521 380 l 1
 321 380 l 1
 321 -190 l 1
 212 -190 l 1
 212 380 l 1
 15 380 l 1
 15 486 l 1
 212 486 l 1
 212 699 l 1
 321 699 l 1
 321 486 l 1
EndSplineSet
EndChar

StartChar: daggerdbl
Encoding: 8225 8225 355
Width: 536
Flags: HW
LayerCount: 2
Fore
SplineSet
321 380 m 1
 321 149 l 1
 521 149 l 1
 521 44 l 1
 321 44 l 1
 321 -190 l 1
 212 -190 l 1
 212 44 l 1
 15 44 l 1
 15 149 l 1
 212 149 l 1
 212 380 l 1
 15 380 l 1
 15 486 l 1
 212 486 l 1
 212 699 l 1
 321 699 l 1
 321 486 l 1
 521 486 l 1
 521 380 l 1
 321 380 l 1
EndSplineSet
EndChar

StartChar: degree
Encoding: 176 176 356
Width: 346
Flags: HW
LayerCount: 2
Fore
SplineSet
197 810 m 0
 261 810 313 758 313 695 c 0
 313 632 261 580 197 580 c 0
 134 580 81 632 81 695 c 0
 81 758 133 810 197 810 c 0
197 759 m 0
 160 759 130 729 130 695 c 0
 130 661 160 632 197 632 c 0
 234 632 264 661 264 695 c 0
 264 729 234 759 197 759 c 0
EndSplineSet
EndChar

StartChar: estimated
Encoding: 8494 8494 357
Width: 809
Flags: HW
LayerCount: 2
Fore
SplineSet
740 312 m 1
 197 312 l 2
 194 312 192 311 192 308 c 2
 192 144 l 2
 192 136 196 130 200 125 c 0
 251 70 325 36 406 36 c 0
 492 36 570 75 621 135 c 1
 670 135 l 1
 610 65 512 18 405 18 c 0
 220 18 70 153 70 319 c 0
 70 486 220 621 405 621 c 0
 590 621 740 486 740 319 c 2
 740 312 l 1
618 333 m 2
 618 498 l 2
 618 506 614 513 609 518 c 0
 557 570 485 603 406 603 c 0
 325 603 253 569 201 515 c 0
 196 510 192 503 192 495 c 2
 192 333 l 2
 192 330 194 328 197 328 c 2
 613 328 l 2
 616 328 618 330 618 333 c 2
EndSplineSet
EndChar

StartChar: literSign
Encoding: 8467 8467 358
Width: 467
Flags: HW
LayerCount: 2
Fore
SplineSet
322 706 m 0
 388 706 432 662 432 580 c 0
 432 444 311 317 192 219 c 1
 177 128 194 84 252 84 c 0
 306 84 348 123 386 169 c 1
 426 121 l 1
 368 34 300 -4 226 -4 c 0
 131 -4 97 60 97 160 c 1
 46 125 l 1
 26 181 l 1
 107 240 l 1
 149 502 l 2
 175 643 243 706 322 706 c 0
320 636 m 0
 287 636 256 601 240 512 c 2
 207 317 l 1
 295 394 361 496 361 578 c 0
 361 616 344 636 320 636 c 0
EndSplineSet
EndChar

StartChar: paragraph
Encoding: 182 182 359
Width: 615
Flags: HW
LayerCount: 2
Fore
SplineSet
523 -109 m 1
 435 -109 l 1
 435 670 l 1
 304 670 l 1
 304 -109 l 1
 217 -109 l 1
 217 356 l 1
 186 356 l 2
 37 356 -1 471 -1 545 c 0
 -1 645 62 742 224 742 c 2
 523 742 l 1
 523 -109 l 1
EndSplineSet
EndChar

StartChar: registered
Encoding: 174 174 360
Width: 745
Flags: HW
LayerCount: 2
Fore
SplineSet
373 689 m 0
 563 689 711 536 711 350 c 0
 711 165 562 9 371 9 c 0
 181 9 34 163 34 348 c 0
 34 533 182 689 373 689 c 0
371 69 m 0
 531 69 654 197 654 350 c 0
 654 503 532 629 373 629 c 0
 213 629 91 501 91 348 c 0
 91 195 212 69 371 69 c 0
517 412 m 0
 517 359 492 321 446 303 c 1
 524 190 l 1
 458 190 l 1
 395 292 l 1
 380 292 l 1
 301 292 l 1
 301 190 l 1
 244 190 l 1
 244 528 l 1
 380 528 l 2
 468 528 517 486 517 412 c 0
301 340 m 1
 380 340 l 2
 432 340 463 366 463 411 c 0
 463 456 432 480 380 480 c 2
 301 480 l 1
 301 340 l 1
EndSplineSet
EndChar

StartChar: section
Encoding: 167 167 361
Width: 499
Flags: HW
LayerCount: 2
Fore
SplineSet
259 694 m 0x72
 324 694 388 677 448 641 c 1
 412 567 l 1
 358 598 305 613 260 613 c 0
 201 613 163 589 163 554 c 0
 163 441 468 492 468 306 c 0x6a
 468 248 420 195 360 177 c 1
 420 151 447 121 447 63 c 0
 447 -23 365 -85 242 -85 c 0xb4
 161 -85 81 -58 21 -9 c 1x72
 56 65 l 1
 113 20 178 -3 239 -3 c 0
 301 -3 344 25 344 60 c 0
 344 172 42 125 42 307 c 0xb4
 42 370 89 416 164 434 c 1
 88 465 63 497 63 550 c 0x6a
 63 634 140 694 259 694 c 0x72
242 376 m 0
 178 376 142 352 142 315 c 0
 142 268 198 235 269 235 c 0
 333 235 366 262 366 299 c 0
 366 345 314 376 242 376 c 0
EndSplineSet
EndChar

StartChar: trademark
Encoding: 8482 8482 362
Width: 886
Flags: HW
LayerCount: 2
Fore
SplineSet
325 626 m 1
 202 626 l 1
 202 280 l 1
 117 280 l 1
 117 626 l 1
 -5 626 l 1
 -5 700 l 1
 325 700 l 1
 325 626 l 1
834 280 m 1
 757 280 l 1
 757 577 l 1
 636 323 l 1
 580 323 l 1
 460 577 l 1
 460 280 l 1
 382 280 l 1
 382 700 l 1
 480 700 l 1
 608 433 l 1
 736 700 l 1
 834 700 l 1
 834 280 l 1
EndSplineSet
EndChar

StartChar: acute
Encoding: 180 180 363
Width: 350
Flags: HW
HStem: 608 148
VStem: 49.5996 224
LayerCount: 2
Fore
SplineSet
286 706 m 1
 164 608 l 1
 62 608 l 1
 168 756 l 1
 286 706 l 1
EndSplineSet
EndChar

StartChar: breve
Encoding: 728 728 364
Width: 350
Flags: HW
LayerCount: 2
Fore
SplineSet
238 749 m 1x70
 316 749 l 1
 313 664 255 607 175 607 c 0
 95 607 37 664 34 749 c 1
 112 749 l 1x70
 114 711 140 684 175 684 c 0xb0
 210 684 236 711 238 749 c 1x70
EndSplineSet
EndChar

StartChar: caron
Encoding: 711 711 365
Width: 350
Flags: HW
LayerCount: 2
Fore
SplineSet
10 755 m 1
 112 755 l 1
 175 662 l 1
 238 755 l 1
 340 755 l 1
 232 605 l 1
 118 605 l 1
 10 755 l 1
EndSplineSet
EndChar

StartChar: cedilla
Encoding: 184 184 366
Width: 350
Flags: HW
HStem: -224 62<78.3159 182.589> -83 94<147.4 184.356>
VStem: 188.4 68<-155.291 -88.3539>
LayerCount: 2
Fore
SplineSet
231 11 m 1x70
 202 -50 l 1
 244 -58 272 -85 272 -129 c 0
 272 -187 225 -224 166 -224 c 0xb0
 133 -224 101 -213 78 -196 c 1x70
 100 -142 l 1
 117 -155 138 -162 158 -162 c 0xb0
 187 -162 204 -141 204 -121 c 0
 204 -102 189 -83 156 -83 c 0
 145 -83 132 -85 121 -88 c 1
 163 11 l 1
 231 11 l 1x70
EndSplineSet
EndChar

StartChar: circumflex
Encoding: 710 710 367
Width: 350
Flags: HW
LayerCount: 2
Fore
SplineSet
331 614 m 1
 237 614 l 1
 175 702 l 1
 113 614 l 1
 19 614 l 1
 122 755 l 1
 228 755 l 1
 331 614 l 1
EndSplineSet
EndChar

StartChar: dieresis
Encoding: 168 168 368
Width: 388
Flags: HW
HStem: 626 127<35.2333 127.796 212.233 304.796>
VStem: 20.7998 121<639.997 738.92> 197.8 121<639.997 738.92>
LayerCount: 2
Fore
SplineSet
87 753 m 0
 122 753 147 726 147 689 c 0
 147 653 122 626 87 626 c 0
 52 626 26 653 26 689 c 0
 26 726 52 753 87 753 c 0
264 753 m 0
 299 753 324 726 324 689 c 0
 324 653 299 626 264 626 c 0
 229 626 203 653 203 689 c 0
 203 726 229 753 264 753 c 0
EndSplineSet
EndChar

StartChar: dotaccent
Encoding: 729 729 369
Width: 350
Flags: HW
LayerCount: 2
Fore
SplineSet
106 685 m 0
 106 723 137 754 175 754 c 0
 213 754 244 723 244 685 c 0
 244 647 213 616 175 616 c 0
 137 616 106 647 106 685 c 0
EndSplineSet
EndChar

StartChar: grave
Encoding: 96 96 370
Width: 350
Flags: HW
HStem: 609 148
VStem: 44.7998 224
LayerCount: 2
Fore
SplineSet
280 609 m 1
 178 609 l 1
 56 707 l 1
 174 757 l 1
 280 609 l 1
EndSplineSet
EndChar

StartChar: hungarumlaut
Encoding: 733 733 371
Width: 350
Flags: HW
LayerCount: 2
Fore
SplineSet
183 719 m 1
 91 609 l 1
 2 609 l 1
 85 763 l 1
 183 719 l 1
348 719 m 1
 256 609 l 1
 167 609 l 1
 250 763 l 1
 348 719 l 1
EndSplineSet
EndChar

StartChar: macron
Encoding: 175 175 372
Width: 350
Flags: HW
LayerCount: 2
Fore
SplineSet
303 641 m 1
 48 641 l 1
 48 724 l 1
 303 724 l 1
 303 641 l 1
EndSplineSet
EndChar

StartChar: ogonek
Encoding: 731 731 373
Width: 350
Flags: HW
LayerCount: 2
Fore
SplineSet
149 12 m 1x60
 208 12 l 1x60
 168 -42 150 -80 150 -105 c 0
 150 -125 163 -137 181 -137 c 0
 198 -137 215 -124 230 -105 c 1
 263 -144 l 1
 240 -180 205 -201 168 -201 c 0
 129 -201 89 -178 89 -123 c 0xa0
 89 -83 111 -39 149 12 c 1x60
EndSplineSet
EndChar

StartChar: ring
Encoding: 730 730 374
Width: 350
Flags: HW
LayerCount: 2
Fore
SplineSet
175 801 m 0
 240 801 293 748 293 685 c 0
 293 621 240 569 175 569 c 0
 110 569 57 621 57 685 c 0
 57 748 110 801 175 801 c 0
175 749 m 0
 138 749 107 720 107 685 c 0
 107 650 138 621 175 621 c 0
 212 621 243 650 243 685 c 0
 243 720 212 749 175 749 c 0
EndSplineSet
EndChar

StartChar: tilde
Encoding: 732 732 375
Width: 350
Flags: HW
LayerCount: 2
Fore
SplineSet
106 758 m 0x38
 161 758 191 703 225 703 c 0x98
 250 703 263 720 263 752 c 1
 336 752 l 1x58
 336 665 305 621 245 621 c 0x98
 185 621 160 676 125 676 c 0
 101 676 88 659 88 627 c 1
 14 627 l 1
 14 714 46 758 106 758 c 0x38
EndSplineSet
EndChar

StartChar: commaaccent
Encoding: 806 806 376
Width: 0
GlyphClass: 4
Flags: HW
AnchorPoint: "Anchor-0" 103 0 mark 0
LayerCount: 2
Fore
SplineSet
40 -109 m 0
 40 -71 71 -40 109 -40 c 0
 147 -40 178 -71 178 -109 c 0
 178 -123.021484375 174 -136 167 -147 c 2
 95 -251 l 1
 36 -251 l 1
 72.4736328125 -167.494140625 l 1
 52.99609375 -155.2734375 40 -133.604492188 40 -109 c 0
EndSplineSet
EndChar

StartChar: firsttonechinese
Encoding: 713 713 377
Width: 350
Flags: HW
LayerCount: 2
Fore
SplineSet
303 641 m 1
 48 641 l 1
 48 724 l 1
 303 724 l 1
 303 641 l 1
EndSplineSet
EndChar

StartChar: f.unknown
Encoding: 65557 -1 378
Width: 442
Flags: HW
LayerCount: 2
Fore
SplineSet
140 532 m 1
 140 564 l 2
 140 691 234 747 323 747 c 0
 359 747 394 739 422 723 c 1
 418 623 l 1
 387 637 354 646 326 646 c 0
 285 646 254 627 254 575 c 2
 254 532 l 1
 393 532 l 1xcd
 393 436 l 1
 254 436 l 1
 254 0 l 1
 140 0 l 1
 140 436 l 1
 70 436 l 1xad
 70 532 l 1
 140 532 l 1
EndSplineSet
EndChar
